<?xml version="1.0" encoding="UTF-8" standalone="no"?>
<!DOCTYPE svg PUBLIC "-//W3C//DTD SVG 1.1//EN"
 "http://www.w3.org/Graphics/SVG/1.1/DTD/svg11.dtd">
<!-- Generated by graphviz version 2.40.1 (20161225.0304)
 -->
<!-- Title: dependencies Pages: 1 -->
<svg width="2071pt" height="284pt"
 viewBox="0.00 0.00 2071.00 284.00" xmlns="http://www.w3.org/2000/svg" xmlns:xlink="http://www.w3.org/1999/xlink">
<g id="graph0" class="graph" transform="scale(1 1) rotate(0) translate(4 280)">
<title>dependencies</title>
<polygon fill="#ffffff" stroke="transparent" points="-4,4 -4,-280 2067,-280 2067,4 -4,4"/>
<text text-anchor="start" x="1010.5091" y="-42.4" font-family="sans-serif" font-weight="bold" font-size="14.00" fill="#000000">Legend</text>
<polygon fill="#ffffb3" stroke="transparent" points="797.5,-10 797.5,-30 817.5,-30 817.5,-10 797.5,-10"/>
<text text-anchor="start" x="821.129" y="-15.4" font-family="sans-serif" font-size="14.00" fill="#000000"> &#160;Declarations</text>
<polygon fill="#8dd3c7" stroke="transparent" points="910.5,-10 910.5,-30 930.5,-30 930.5,-10 910.5,-10"/>
<text text-anchor="start" x="934.2251" y="-15.4" font-family="sans-serif" font-size="14.00" fill="#000000"> &#160;Module</text>
<polygon fill="#80b1d3" stroke="transparent" points="996.5,-10 996.5,-30 1016.5,-30 1016.5,-10 996.5,-10"/>
<text text-anchor="start" x="1020.2812" y="-15.4" font-family="sans-serif" font-size="14.00" fill="#000000"> &#160;Bootstrap</text>
<polygon fill="#fdb462" stroke="transparent" points="1093.5,-10 1093.5,-30 1113.5,-30 1113.5,-10 1093.5,-10"/>
<text text-anchor="start" x="1117.1732" y="-15.4" font-family="sans-serif" font-size="14.00" fill="#000000"> &#160;Providers</text>
<polygon fill="#fb8072" stroke="transparent" points="1189.5,-10 1189.5,-30 1209.5,-30 1209.5,-10 1189.5,-10"/>
<text text-anchor="start" x="1213.2258" y="-15.4" font-family="sans-serif" font-size="14.00" fill="#000000"> &#160;Exports</text>
<g id="clust1" class="cluster">
<title>cluster_CoreModule</title>
<polygon fill="none" stroke="#000000" stroke-dasharray="1,5" points="8,-70 8,-268 2055,-268 2055,-70 8,-70"/>
</g>
<g id="clust2" class="cluster">
<title>cluster_CoreModule_declarations</title>
<polygon fill="none" stroke="#000000" points="1909,-78 1909,-130 2047,-130 2047,-78 1909,-78"/>
</g>
<g id="clust4" class="cluster">
<title>cluster_CoreModule_imports</title>
<polygon fill="none" stroke="#000000" points="1679,-78 1679,-130 1901,-130 1901,-78 1679,-78"/>
</g>
<g id="clust5" class="cluster">
<title>cluster_CoreModule_exports</title>
<polygon fill="none" stroke="#000000" points="1214,-208 1214,-260 1588,-260 1588,-208 1214,-208"/>
</g>
<g id="clust7" class="cluster">
<title>cluster_CoreModule_providers</title>
<polygon fill="none" stroke="#000000" points="16,-78 16,-130 1671,-130 1671,-78 16,-78"/>
</g>
<!-- NavbarComponent -->
<g id="node1" class="node">
<title>NavbarComponent</title>
<polygon fill="#ffffb3" stroke="#000000" points="2039.0297,-122 1916.9703,-122 1916.9703,-86 2039.0297,-86 2039.0297,-122"/>
<text text-anchor="middle" x="1978" y="-99.8" font-family="Times,serif" font-size="14.00" fill="#000000">NavbarComponent</text>
</g>
<!-- CoreModule -->
<g id="node2" class="node">
<title>CoreModule</title>
<polygon fill="#8dd3c7" stroke="#000000" points="1428.2619,-187 1425.2619,-191 1404.2619,-191 1401.2619,-187 1341.7381,-187 1341.7381,-151 1428.2619,-151 1428.2619,-187"/>
<text text-anchor="middle" x="1385" y="-164.8" font-family="Times,serif" font-size="14.00" fill="#000000">CoreModule</text>
</g>
<!-- NavbarComponent&#45;&gt;CoreModule -->
<g id="edge1" class="edge">
<title>NavbarComponent&#45;&gt;CoreModule</title>
<path fill="none" stroke="#000000" d="M1978,-122.2843C1978,-143.3211 1978,-175 1978,-175 1978,-175 1438.6047,-175 1438.6047,-175"/>
<polygon fill="#000000" stroke="#000000" points="1438.6047,-171.5001 1428.6047,-175 1438.6047,-178.5001 1438.6047,-171.5001"/>
</g>
<!-- NavbarComponent  -->
<g id="node5" class="node">
<title>NavbarComponent </title>
<polygon fill="#fb8072" stroke="#000000" points="1580.0288,-252 1453.9712,-252 1453.9712,-216 1580.0288,-216 1580.0288,-252"/>
<text text-anchor="middle" x="1517" y="-229.8" font-family="Times,serif" font-size="14.00" fill="#000000">NavbarComponent </text>
</g>
<!-- CoreModule&#45;&gt;NavbarComponent  -->
<g id="edge4" class="edge">
<title>CoreModule&#45;&gt;NavbarComponent </title>
<path fill="none" stroke="#000000" stroke-dasharray="5,2" d="M1428.6426,-181C1446.1855,-181 1462.3401,-181 1462.3401,-181 1462.3401,-181 1462.3401,-205.7604 1462.3401,-205.7604"/>
<polygon fill="#000000" stroke="#000000" points="1458.8402,-205.7604 1462.3401,-215.7604 1465.8402,-205.7604 1458.8402,-205.7604"/>
</g>
<!-- RouterModule  -->
<g id="node6" class="node">
<title>RouterModule </title>
<polygon fill="#fb8072" stroke="#000000" points="1435.6523,-252 1334.3477,-252 1334.3477,-216 1435.6523,-216 1435.6523,-252"/>
<text text-anchor="middle" x="1385" y="-229.8" font-family="Times,serif" font-size="14.00" fill="#000000">RouterModule </text>
</g>
<!-- CoreModule&#45;&gt;RouterModule  -->
<g id="edge5" class="edge">
<title>CoreModule&#45;&gt;RouterModule </title>
<path fill="none" stroke="#000000" stroke-dasharray="5,2" d="M1385,-187.1061C1385,-187.1061 1385,-205.991 1385,-205.991"/>
<polygon fill="#000000" stroke="#000000" points="1381.5001,-205.9909 1385,-215.991 1388.5001,-205.991 1381.5001,-205.9909"/>
</g>
<!-- ToastModule  -->
<g id="node7" class="node">
<title>ToastModule </title>
<polygon fill="#fb8072" stroke="#000000" points="1316.1523,-252 1221.8477,-252 1221.8477,-216 1316.1523,-216 1316.1523,-252"/>
<text text-anchor="middle" x="1269" y="-229.8" font-family="Times,serif" font-size="14.00" fill="#000000">ToastModule </text>
</g>
<!-- CoreModule&#45;&gt;ToastModule  -->
<g id="edge6" class="edge">
<title>CoreModule&#45;&gt;ToastModule </title>
<path fill="none" stroke="#000000" stroke-dasharray="5,2" d="M1341.4284,-181C1323.914,-181 1307.7857,-181 1307.7857,-181 1307.7857,-181 1307.7857,-205.7604 1307.7857,-205.7604"/>
<polygon fill="#000000" stroke="#000000" points="1304.2858,-205.7604 1307.7857,-215.7604 1311.2858,-205.7604 1304.2858,-205.7604"/>
</g>
<!-- RouterModule -->
<g id="node3" class="node">
<title>RouterModule</title>
<polygon fill="#8dd3c7" stroke="#000000" points="1892.6528,-122 1889.6528,-126 1868.6528,-126 1865.6528,-122 1795.3472,-122 1795.3472,-86 1892.6528,-86 1892.6528,-122"/>
<text text-anchor="middle" x="1844" y="-99.8" font-family="Times,serif" font-size="14.00" fill="#000000">RouterModule</text>
</g>
<!-- RouterModule&#45;&gt;CoreModule -->
<g id="edge2" class="edge">
<title>RouterModule&#45;&gt;CoreModule</title>
<path fill="none" stroke="#000000" d="M1844,-122.1061C1844,-141.3391 1844,-169 1844,-169 1844,-169 1438.5954,-169 1438.5954,-169"/>
<polygon fill="#000000" stroke="#000000" points="1438.5954,-165.5001 1428.5954,-169 1438.5954,-172.5001 1438.5954,-165.5001"/>
</g>
<!-- ToastModule -->
<g id="node4" class="node">
<title>ToastModule</title>
<polygon fill="#8dd3c7" stroke="#000000" points="1777.1529,-122 1774.1529,-126 1753.1529,-126 1750.1529,-122 1686.8471,-122 1686.8471,-86 1777.1529,-86 1777.1529,-122"/>
<text text-anchor="middle" x="1732" y="-99.8" font-family="Times,serif" font-size="14.00" fill="#000000">ToastModule</text>
</g>
<!-- ToastModule&#45;&gt;CoreModule -->
<g id="edge3" class="edge">
<title>ToastModule&#45;&gt;CoreModule</title>
<path fill="none" stroke="#000000" d="M1732,-122.0225C1732,-139.3734 1732,-163 1732,-163 1732,-163 1438.5964,-163 1438.5964,-163"/>
<polygon fill="#000000" stroke="#000000" points="1438.5965,-159.5001 1428.5964,-163 1438.5964,-166.5001 1438.5965,-159.5001"/>
</g>
<!-- MockBackendService -->
<g id="node8" class="node">
<title>MockBackendService</title>
<ellipse fill="#fdb462" stroke="#000000" cx="1567" cy="-104" rx="96.1112" ry="18"/>
<text text-anchor="middle" x="1567" y="-99.8" font-family="Times,serif" font-size="14.00" fill="#000000">MockBackendService</text>
</g>
<!-- MockBackendService&#45;&gt;CoreModule -->
<g id="edge7" class="edge">
<title>MockBackendService&#45;&gt;CoreModule</title>
<path fill="none" stroke="#000000" d="M1525.3545,-120.479C1525.3545,-136.0373 1525.3545,-157 1525.3545,-157 1525.3545,-157 1438.6397,-157 1438.6397,-157"/>
<polygon fill="#000000" stroke="#000000" points="1438.6397,-153.5001 1428.6397,-157 1438.6396,-160.5001 1438.6397,-153.5001"/>
</g>
<!-- MockBackend -->
<g id="node9" class="node">
<title>MockBackend</title>
<ellipse fill="#fdb462" stroke="#000000" cx="1385" cy="-104" rx="67.2004" ry="18"/>
<text text-anchor="middle" x="1385" y="-99.8" font-family="Times,serif" font-size="14.00" fill="#000000">MockBackend</text>
</g>
<!-- MockBackend&#45;&gt;CoreModule -->
<g id="edge8" class="edge">
<title>MockBackend&#45;&gt;CoreModule</title>
<path fill="none" stroke="#000000" d="M1385,-122.1061C1385,-122.1061 1385,-140.991 1385,-140.991"/>
<polygon fill="#000000" stroke="#000000" points="1381.5001,-140.9909 1385,-150.991 1388.5001,-140.991 1381.5001,-140.9909"/>
</g>
<!-- BaseRequestOptions -->
<g id="node10" class="node">
<title>BaseRequestOptions</title>
<ellipse fill="#fdb462" stroke="#000000" cx="1208" cy="-104" rx="91.4905" ry="18"/>
<text text-anchor="middle" x="1208" y="-99.8" font-family="Times,serif" font-size="14.00" fill="#000000">BaseRequestOptions</text>
</g>
<!-- BaseRequestOptions&#45;&gt;CoreModule -->
<g id="edge9" class="edge">
<title>BaseRequestOptions&#45;&gt;CoreModule</title>
<path fill="none" stroke="#000000" d="M1260.7096,-118.7635C1260.7096,-134.4457 1260.7096,-157 1260.7096,-157 1260.7096,-157 1331.5292,-157 1331.5292,-157"/>
<polygon fill="#000000" stroke="#000000" points="1331.5293,-160.5001 1341.5292,-157 1331.5292,-153.5001 1331.5293,-160.5001"/>
</g>
<!-- { provide: Http, deps: [MockBackend, BaseRequestOptions], useFactory: (backend, options) =&gt; {} } -->
<g id="node11" class="node">
<title>{ provide: Http, deps: [MockBackend, BaseRequestOptions], useFactory: (backend, options) =&gt; {} }</title>
<ellipse fill="#fdb462" stroke="#000000" cx="697" cy="-104" rx="401.9107" ry="18"/>
<text text-anchor="middle" x="697" y="-99.8" font-family="Times,serif" font-size="14.00" fill="#000000">{ provide: Http, deps: [MockBackend, BaseRequestOptions], useFactory: (backend, options) =&gt; {} }</text>
</g>
<!-- { provide: Http, deps: [MockBackend, BaseRequestOptions], useFactory: (backend, options) =&gt; {} }&#45;&gt;CoreModule -->
<g id="edge10" class="edge">
<title>{ provide: Http, deps: [MockBackend, BaseRequestOptions], useFactory: (backend, options) =&gt; {} }&#45;&gt;CoreModule</title>
<path fill="none" stroke="#000000" d="M697,-122.0225C697,-139.3734 697,-163 697,-163 697,-163 1331.7019,-163 1331.7019,-163"/>
<polygon fill="#000000" stroke="#000000" points="1331.7019,-166.5001 1341.7019,-163 1331.7019,-159.5001 1331.7019,-166.5001"/>
</g>
<!-- UserService -->
<g id="node12" class="node">
<title>UserService</title>
<ellipse fill="#fdb462" stroke="#000000" cx="219" cy="-104" rx="58.4415" ry="18"/>
<text text-anchor="middle" x="219" y="-99.8" font-family="Times,serif" font-size="14.00" fill="#000000">UserService</text>
</g>
<!-- UserService&#45;&gt;CoreModule -->
<g id="edge11" class="edge">
<title>UserService&#45;&gt;CoreModule</title>
<path fill="none" stroke="#000000" d="M219,-122.1061C219,-141.3391 219,-169 219,-169 219,-169 1331.4195,-169 1331.4195,-169"/>
<polygon fill="#000000" stroke="#000000" points="1331.4195,-172.5001 1341.4195,-169 1331.4194,-165.5001 1331.4195,-172.5001"/>
</g>
<!-- AuthService -->
<g id="node13" class="node">
<title>AuthService</title>
<ellipse fill="#fdb462" stroke="#000000" cx="83" cy="-104" rx="59.1083" ry="18"/>
<text text-anchor="middle" x="83" y="-99.8" font-family="Times,serif" font-size="14.00" fill="#000000">AuthService</text>
</g>
<!-- AuthService&#45;&gt;CoreModule -->
<g id="edge12" class="edge">
<title>AuthService&#45;&gt;CoreModule</title>
<path fill="none" stroke="#000000" d="M83,-122.2843C83,-143.3211 83,-175 83,-175 83,-175 1331.6801,-175 1331.6801,-175"/>
<polygon fill="#000000" stroke="#000000" points="1331.6802,-178.5001 1341.6801,-175 1331.6801,-171.5001 1331.6802,-178.5001"/>
</g>
</g>
</svg>
