<?xml version="1.0" encoding="UTF-8" standalone="no"?>
<!DOCTYPE svg PUBLIC "-//W3C//DTD SVG 1.1//EN"
 "http://www.w3.org/Graphics/SVG/1.1/DTD/svg11.dtd">
<!-- Generated by graphviz version 2.40.1 (20161225.0304)
 -->
<!-- Title: dependencies Pages: 1 -->
<svg width="1190pt" height="349pt"
 viewBox="0.00 0.00 1190.00 349.00" xmlns="http://www.w3.org/2000/svg" xmlns:xlink="http://www.w3.org/1999/xlink">
<g id="graph0" class="graph" transform="scale(1 1) rotate(0) translate(4 345)">
<title>dependencies</title>
<polygon fill="#ffffff" stroke="transparent" points="-4,4 -4,-345 1186,-345 1186,4 -4,4"/>
<text text-anchor="start" x="570.0091" y="-42.4" font-family="sans-serif" font-weight="bold" font-size="14.00" fill="#000000">Legend</text>
<polygon fill="#ffffb3" stroke="transparent" points="357,-10 357,-30 377,-30 377,-10 357,-10"/>
<text text-anchor="start" x="380.629" y="-15.4" font-family="sans-serif" font-size="14.00" fill="#000000"> &#160;Declarations</text>
<polygon fill="#8dd3c7" stroke="transparent" points="470,-10 470,-30 490,-30 490,-10 470,-10"/>
<text text-anchor="start" x="493.7251" y="-15.4" font-family="sans-serif" font-size="14.00" fill="#000000"> &#160;Module</text>
<polygon fill="#80b1d3" stroke="transparent" points="556,-10 556,-30 576,-30 576,-10 556,-10"/>
<text text-anchor="start" x="579.7812" y="-15.4" font-family="sans-serif" font-size="14.00" fill="#000000"> &#160;Bootstrap</text>
<polygon fill="#fdb462" stroke="transparent" points="653,-10 653,-30 673,-30 673,-10 653,-10"/>
<text text-anchor="start" x="676.6732" y="-15.4" font-family="sans-serif" font-size="14.00" fill="#000000"> &#160;Providers</text>
<polygon fill="#fb8072" stroke="transparent" points="749,-10 749,-30 769,-30 769,-10 749,-10"/>
<text text-anchor="start" x="772.7258" y="-15.4" font-family="sans-serif" font-size="14.00" fill="#000000"> &#160;Exports</text>
<g id="clust1" class="cluster">
<title>cluster_SharedModule</title>
<polygon fill="none" stroke="#000000" stroke-dasharray="1,5" points="8,-70 8,-333 1174,-333 1174,-70 8,-70"/>
</g>
<g id="clust2" class="cluster">
<title>cluster_SharedModule_declarations</title>
<polygon fill="none" stroke="#000000" points="424,-143 424,-195 770,-195 770,-143 424,-143"/>
</g>
<g id="clust3" class="cluster">
<title>cluster_SharedModule_EmailValidatorDirective_providers</title>
<polygon fill="none" stroke="#000000" points="610,-78 610,-130 1166,-130 1166,-78 610,-78"/>
</g>
<g id="clust4" class="cluster">
<title>cluster_SharedModule_PasswordMatchDirective_providers</title>
<polygon fill="none" stroke="#000000" points="16,-78 16,-130 602,-130 602,-78 16,-78"/>
</g>
<g id="clust5" class="cluster">
<title>cluster_SharedModule_imports</title>
<polygon fill="none" stroke="#000000" points="288,-143 288,-195 416,-195 416,-143 288,-143"/>
</g>
<g id="clust6" class="cluster">
<title>cluster_SharedModule_exports</title>
<polygon fill="none" stroke="#000000" points="266,-273 266,-325 753,-325 753,-273 266,-273"/>
</g>
<!-- EmailValidatorDirective -->
<g id="node1" class="node">
<title>EmailValidatorDirective</title>
<polygon fill="#ffffb3" stroke="#000000" points="762.3905,-187 607.6095,-187 607.6095,-151 762.3905,-151 762.3905,-187"/>
<text text-anchor="middle" x="685" y="-164.8" font-family="Times,serif" font-size="14.00" fill="#000000">EmailValidatorDirective</text>
</g>
<!-- SharedModule -->
<g id="node3" class="node">
<title>SharedModule</title>
<polygon fill="#8dd3c7" stroke="#000000" points="560.4231,-252 557.4231,-256 536.4231,-256 533.4231,-252 461.5769,-252 461.5769,-216 560.4231,-216 560.4231,-252"/>
<text text-anchor="middle" x="511" y="-229.8" font-family="Times,serif" font-size="14.00" fill="#000000">SharedModule</text>
</g>
<!-- EmailValidatorDirective&#45;&gt;SharedModule -->
<g id="edge1" class="edge">
<title>EmailValidatorDirective&#45;&gt;SharedModule</title>
<path fill="none" stroke="#000000" d="M676.375,-187.0225C676.375,-204.3734 676.375,-228 676.375,-228 676.375,-228 570.618,-228 570.618,-228"/>
<polygon fill="#000000" stroke="#000000" points="570.618,-224.5001 560.618,-228 570.6179,-231.5001 570.618,-224.5001"/>
</g>
<!-- PasswordMatchDirective -->
<g id="node2" class="node">
<title>PasswordMatchDirective</title>
<polygon fill="#ffffb3" stroke="#000000" points="589.5016,-187 432.4984,-187 432.4984,-151 589.5016,-151 589.5016,-187"/>
<text text-anchor="middle" x="511" y="-164.8" font-family="Times,serif" font-size="14.00" fill="#000000">PasswordMatchDirective</text>
</g>
<!-- PasswordMatchDirective&#45;&gt;SharedModule -->
<g id="edge3" class="edge">
<title>PasswordMatchDirective&#45;&gt;SharedModule</title>
<path fill="none" stroke="#000000" d="M511,-187.1061C511,-187.1061 511,-205.991 511,-205.991"/>
<polygon fill="#000000" stroke="#000000" points="507.5001,-205.9909 511,-215.991 514.5001,-205.991 507.5001,-205.9909"/>
</g>
<!-- EmailValidatorDirective  -->
<g id="node7" class="node">
<title>EmailValidatorDirective </title>
<polygon fill="#fb8072" stroke="#000000" points="744.89,-317 587.11,-317 587.11,-281 744.89,-281 744.89,-317"/>
<text text-anchor="middle" x="666" y="-294.8" font-family="Times,serif" font-size="14.00" fill="#000000">EmailValidatorDirective </text>
</g>
<!-- SharedModule&#45;&gt;EmailValidatorDirective  -->
<g id="edge6" class="edge">
<title>SharedModule&#45;&gt;EmailValidatorDirective </title>
<path fill="none" stroke="#000000" stroke-dasharray="5,2" d="M560.4204,-240C581.3102,-240 600.8992,-240 600.8992,-240 600.8992,-240 600.8992,-270.9775 600.8992,-270.9775"/>
<polygon fill="#000000" stroke="#000000" points="597.3993,-270.9774 600.8992,-280.9775 604.3993,-270.9775 597.3993,-270.9774"/>
</g>
<!-- CommonModule  -->
<g id="node8" class="node">
<title>CommonModule </title>
<polygon fill="#fb8072" stroke="#000000" points="568.6677,-317 453.3323,-317 453.3323,-281 568.6677,-281 568.6677,-317"/>
<text text-anchor="middle" x="511" y="-294.8" font-family="Times,serif" font-size="14.00" fill="#000000">CommonModule </text>
</g>
<!-- SharedModule&#45;&gt;CommonModule  -->
<g id="edge7" class="edge">
<title>SharedModule&#45;&gt;CommonModule </title>
<path fill="none" stroke="#000000" stroke-dasharray="5,2" d="M511,-252.1061C511,-252.1061 511,-270.991 511,-270.991"/>
<polygon fill="#000000" stroke="#000000" points="507.5001,-270.9909 511,-280.991 514.5001,-270.991 507.5001,-270.9909"/>
</g>
<!-- PasswordMatchDirective  -->
<g id="node9" class="node">
<title>PasswordMatchDirective </title>
<polygon fill="#fb8072" stroke="#000000" points="435.5008,-317 274.4992,-317 274.4992,-281 435.5008,-281 435.5008,-317"/>
<text text-anchor="middle" x="355" y="-294.8" font-family="Times,serif" font-size="14.00" fill="#000000">PasswordMatchDirective </text>
</g>
<!-- SharedModule&#45;&gt;PasswordMatchDirective  -->
<g id="edge8" class="edge">
<title>SharedModule&#45;&gt;PasswordMatchDirective </title>
<path fill="none" stroke="#000000" stroke-dasharray="5,2" d="M461.5282,-240C440.1946,-240 420.0417,-240 420.0417,-240 420.0417,-240 420.0417,-270.9775 420.0417,-270.9775"/>
<polygon fill="#000000" stroke="#000000" points="416.5418,-270.9774 420.0417,-280.9775 423.5418,-270.9775 416.5418,-270.9774"/>
</g>
<!-- { provide: NG_VALIDATORS, useValue: validateEmail, multi: &#160;} -->
<g id="node4" class="node">
<title>{ provide: NG_VALIDATORS, useValue: validateEmail, multi: &#160;}</title>
<ellipse fill="#fdb462" stroke="#000000" cx="888" cy="-104" rx="269.973" ry="18"/>
<text text-anchor="middle" x="888" y="-99.8" font-family="Times,serif" font-size="14.00" fill="#000000">{ provide: NG_VALIDATORS, useValue: validateEmail, multi: &#160;}</text>
</g>
<!-- { provide: NG_VALIDATORS, useValue: validateEmail, multi: &#160;}&#45;&gt;EmailValidatorDirective -->
<g id="edge2" class="edge">
<title>{ provide: NG_VALIDATORS, useValue: validateEmail, multi: &#160;}&#45;&gt;EmailValidatorDirective</title>
<path fill="none" stroke="#000000" d="M690.1042,-116.5327C690.1042,-116.5327 690.1042,-140.8507 690.1042,-140.8507"/>
<polygon fill="#000000" stroke="#000000" points="686.6043,-140.8506 690.1042,-150.8507 693.6043,-140.8507 686.6043,-140.8506"/>
</g>
<!-- { provide: NG_VALIDATORS, useValue: passwordMatcher, multi: &#160;} -->
<g id="node5" class="node">
<title>{ provide: NG_VALIDATORS, useValue: passwordMatcher, multi: &#160;}</title>
<ellipse fill="#fdb462" stroke="#000000" cx="309" cy="-104" rx="284.9868" ry="18"/>
<text text-anchor="middle" x="309" y="-99.8" font-family="Times,serif" font-size="14.00" fill="#000000">{ provide: NG_VALIDATORS, useValue: passwordMatcher, multi: &#160;}</text>
</g>
<!-- { provide: NG_VALIDATORS, useValue: passwordMatcher, multi: &#160;}&#45;&gt;PasswordMatchDirective -->
<g id="edge4" class="edge">
<title>{ provide: NG_VALIDATORS, useValue: passwordMatcher, multi: &#160;}&#45;&gt;PasswordMatchDirective</title>
<path fill="none" stroke="#000000" d="M511,-116.8419C511,-116.8419 511,-140.5231 511,-140.5231"/>
<polygon fill="#000000" stroke="#000000" points="507.5001,-140.523 511,-150.5231 514.5001,-140.5231 507.5001,-140.523"/>
</g>
<!-- CommonModule -->
<g id="node6" class="node">
<title>CommonModule</title>
<polygon fill="#8dd3c7" stroke="#000000" points="407.6681,-187 404.6681,-191 383.6681,-191 380.6681,-187 296.3319,-187 296.3319,-151 407.6681,-151 407.6681,-187"/>
<text text-anchor="middle" x="352" y="-164.8" font-family="Times,serif" font-size="14.00" fill="#000000">CommonModule</text>
</g>
<!-- CommonModule&#45;&gt;SharedModule -->
<g id="edge5" class="edge">
<title>CommonModule&#45;&gt;SharedModule</title>
<path fill="none" stroke="#000000" d="M352,-187.0225C352,-204.3734 352,-228 352,-228 352,-228 451.563,-228 451.563,-228"/>
<polygon fill="#000000" stroke="#000000" points="451.563,-231.5001 461.563,-228 451.5629,-224.5001 451.563,-231.5001"/>
</g>
</g>
</svg>
