<?xml version="1.0" encoding="UTF-8" standalone="no"?>
<!DOCTYPE svg PUBLIC "-//W3C//DTD SVG 1.1//EN"
 "http://www.w3.org/Graphics/SVG/1.1/DTD/svg11.dtd">
<!-- Generated by graphviz version 2.40.1 (20161225.0304)
 -->
<!-- Title: dependencies Pages: 1 -->
<svg width="1190pt" height="349pt"
 viewBox="0.00 0.00 1190.00 349.00" xmlns="http://www.w3.org/2000/svg" xmlns:xlink="http://www.w3.org/1999/xlink">
<g id="graph0" class="graph" transform="scale(1 1) rotate(0) translate(4 345)">
<title>dependencies</title>
<polygon fill="#ffffff" stroke="transparent" points="-4,4 -4,-345 1186,-345 1186,4 -4,4"/>
<text text-anchor="start" x="570.0091" y="-42.4" font-family="sans-serif" font-weight="bold" font-size="14.00" fill="#000000">Legend</text>
<polygon fill="#ffffb3" stroke="transparent" points="357,-10 357,-30 377,-30 377,-10 357,-10"/>
<text text-anchor="start" x="380.629" y="-15.4" font-family="sans-serif" font-size="14.00" fill="#000000"> &#160;Declarations</text>
<polygon fill="#8dd3c7" stroke="transparent" points="470,-10 470,-30 490,-30 490,-10 470,-10"/>
<text text-anchor="start" x="493.7251" y="-15.4" font-family="sans-serif" font-size="14.00" fill="#000000"> &#160;Module</text>
<polygon fill="#80b1d3" stroke="transparent" points="556,-10 556,-30 576,-30 576,-10 556,-10"/>
<text text-anchor="start" x="579.7812" y="-15.4" font-family="sans-serif" font-size="14.00" fill="#000000"> &#160;Bootstrap</text>
<polygon fill="#fdb462" stroke="transparent" points="653,-10 653,-30 673,-30 673,-10 653,-10"/>
<text text-anchor="start" x="676.6732" y="-15.4" font-family="sans-serif" font-size="14.00" fill="#000000"> &#160;Providers</text>
<polygon fill="#fb8072" stroke="transparent" points="749,-10 749,-30 769,-30 769,-10 749,-10"/>
<text text-anchor="start" x="772.7258" y="-15.4" font-family="sans-serif" font-size="14.00" fill="#000000"> &#160;Exports</text>
<g id="clust1" class="cluster">
<title>cluster_SharedModule</title>
<polygon fill="none" stroke="#000000" stroke-dasharray="1,5" points="8,-70 8,-333 1174,-333 1174,-70 8,-70"/>
</g>
<g id="clust2" class="cluster">
<title>cluster_SharedModule_declarations</title>
<polygon fill="none" stroke="#000000" points="483,-143 483,-195 829,-195 829,-143 483,-143"/>
</g>
<g id="clust3" class="cluster">
<title>cluster_SharedModule_EmailValidatorDirective_providers</title>
<polygon fill="none" stroke="#000000" points="610,-78 610,-130 1166,-130 1166,-78 610,-78"/>
</g>
<g id="clust4" class="cluster">
<title>cluster_SharedModule_PasswordMatchDirective_providers</title>
<polygon fill="none" stroke="#000000" points="16,-78 16,-130 602,-130 602,-78 16,-78"/>
</g>
<g id="clust5" class="cluster">
<title>cluster_SharedModule_imports</title>
<polygon fill="none" stroke="#000000" points="185,-143 185,-195 475,-195 475,-143 185,-143"/>
</g>
<g id="clust6" class="cluster">
<title>cluster_SharedModule_exports</title>
<polygon fill="none" stroke="#000000" points="158,-273 158,-325 810,-325 810,-273 158,-273"/>
</g>
<!-- EmailValidatorDirective -->
<g id="node1" class="node">
<title>EmailValidatorDirective</title>
<polygon fill="#ffffb3" stroke="#000000" points="821.3905,-187 666.6095,-187 666.6095,-151 821.3905,-151 821.3905,-187"/>
<text text-anchor="middle" x="744" y="-164.8" font-family="Times,serif" font-size="14.00" fill="#000000">EmailValidatorDirective</text>
</g>
<!-- SharedModule -->
<g id="node3" class="node">
<title>SharedModule</title>
<polygon fill="#8dd3c7" stroke="#000000" points="539.4231,-252 536.4231,-256 515.4231,-256 512.4231,-252 440.5769,-252 440.5769,-216 539.4231,-216 539.4231,-252"/>
<text text-anchor="middle" x="490" y="-229.8" font-family="Times,serif" font-size="14.00" fill="#000000">SharedModule</text>
</g>
<!-- EmailValidatorDirective&#45;&gt;SharedModule -->
<g id="edge1" class="edge">
<title>EmailValidatorDirective&#45;&gt;SharedModule</title>
<path fill="none" stroke="#000000" d="M734.375,-187.0225C734.375,-204.3734 734.375,-228 734.375,-228 734.375,-228 549.4529,-228 549.4529,-228"/>
<polygon fill="#000000" stroke="#000000" points="549.453,-224.5001 539.4529,-228 549.4529,-231.5001 549.453,-224.5001"/>
</g>
<!-- PasswordMatchDirective -->
<g id="node2" class="node">
<title>PasswordMatchDirective</title>
<polygon fill="#ffffb3" stroke="#000000" points="648.5016,-187 491.4984,-187 491.4984,-151 648.5016,-151 648.5016,-187"/>
<text text-anchor="middle" x="570" y="-164.8" font-family="Times,serif" font-size="14.00" fill="#000000">PasswordMatchDirective</text>
</g>
<!-- PasswordMatchDirective&#45;&gt;SharedModule -->
<g id="edge3" class="edge">
<title>PasswordMatchDirective&#45;&gt;SharedModule</title>
<path fill="none" stroke="#000000" d="M515.2304,-187.1061C515.2304,-187.1061 515.2304,-205.991 515.2304,-205.991"/>
<polygon fill="#000000" stroke="#000000" points="511.7304,-205.9909 515.2304,-215.991 518.7304,-205.991 511.7304,-205.9909"/>
</g>
<!-- EmailValidatorDirective  -->
<g id="node8" class="node">
<title>EmailValidatorDirective </title>
<polygon fill="#fb8072" stroke="#000000" points="801.89,-317 644.11,-317 644.11,-281 801.89,-281 801.89,-317"/>
<text text-anchor="middle" x="723" y="-294.8" font-family="Times,serif" font-size="14.00" fill="#000000">EmailValidatorDirective </text>
</g>
<!-- SharedModule&#45;&gt;EmailValidatorDirective  -->
<g id="edge7" class="edge">
<title>SharedModule&#45;&gt;EmailValidatorDirective </title>
<path fill="none" stroke="#000000" stroke-dasharray="5,2" d="M539.4314,-240C588.9217,-240 657.7777,-240 657.7777,-240 657.7777,-240 657.7777,-270.9775 657.7777,-270.9775"/>
<polygon fill="#000000" stroke="#000000" points="654.2778,-270.9774 657.7777,-280.9775 661.2778,-270.9775 654.2778,-270.9774"/>
</g>
<!-- CommonModule  -->
<g id="node9" class="node">
<title>CommonModule </title>
<polygon fill="#fb8072" stroke="#000000" points="625.6677,-317 510.3323,-317 510.3323,-281 625.6677,-281 625.6677,-317"/>
<text text-anchor="middle" x="568" y="-294.8" font-family="Times,serif" font-size="14.00" fill="#000000">CommonModule </text>
</g>
<!-- SharedModule&#45;&gt;CommonModule  -->
<g id="edge8" class="edge">
<title>SharedModule&#45;&gt;CommonModule </title>
<path fill="none" stroke="#000000" stroke-dasharray="5,2" d="M524.8137,-252.1061C524.8137,-252.1061 524.8137,-270.991 524.8137,-270.991"/>
<polygon fill="#000000" stroke="#000000" points="521.3137,-270.9909 524.8137,-280.991 528.3137,-270.991 521.3137,-270.9909"/>
</g>
<!-- PasswordMatchDirective  -->
<g id="node10" class="node">
<title>PasswordMatchDirective </title>
<polygon fill="#fb8072" stroke="#000000" points="492.5008,-317 331.4992,-317 331.4992,-281 492.5008,-281 492.5008,-317"/>
<text text-anchor="middle" x="412" y="-294.8" font-family="Times,serif" font-size="14.00" fill="#000000">PasswordMatchDirective </text>
</g>
<!-- SharedModule&#45;&gt;PasswordMatchDirective  -->
<g id="edge9" class="edge">
<title>SharedModule&#45;&gt;PasswordMatchDirective </title>
<path fill="none" stroke="#000000" stroke-dasharray="5,2" d="M466.6447,-252.1061C466.6447,-252.1061 466.6447,-270.991 466.6447,-270.991"/>
<polygon fill="#000000" stroke="#000000" points="463.1447,-270.9909 466.6447,-280.991 470.1447,-270.991 463.1447,-270.9909"/>
</g>
<!-- ReactiveFormsModule  -->
<g id="node11" class="node">
<title>ReactiveFormsModule </title>
<polygon fill="#fb8072" stroke="#000000" points="313.8045,-317 166.1955,-317 166.1955,-281 313.8045,-281 313.8045,-317"/>
<text text-anchor="middle" x="240" y="-294.8" font-family="Times,serif" font-size="14.00" fill="#000000">ReactiveFormsModule </text>
</g>
<!-- SharedModule&#45;&gt;ReactiveFormsModule  -->
<g id="edge10" class="edge">
<title>SharedModule&#45;&gt;ReactiveFormsModule </title>
<path fill="none" stroke="#000000" stroke-dasharray="5,2" d="M440.6837,-240C371.3357,-240 253.375,-240 253.375,-240 253.375,-240 253.375,-270.9775 253.375,-270.9775"/>
<polygon fill="#000000" stroke="#000000" points="249.8751,-270.9774 253.375,-280.9775 256.8751,-270.9775 249.8751,-270.9774"/>
</g>
<!-- { provide: NG_VALIDATORS, useValue: validateEmail, multi: &#160;} -->
<g id="node4" class="node">
<title>{ provide: NG_VALIDATORS, useValue: validateEmail, multi: &#160;}</title>
<ellipse fill="#fdb462" stroke="#000000" cx="888" cy="-104" rx="269.973" ry="18"/>
<text text-anchor="middle" x="888" y="-99.8" font-family="Times,serif" font-size="14.00" fill="#000000">{ provide: NG_VALIDATORS, useValue: validateEmail, multi: &#160;}</text>
</g>
<!-- { provide: NG_VALIDATORS, useValue: validateEmail, multi: &#160;}&#45;&gt;EmailValidatorDirective -->
<g id="edge2" class="edge">
<title>{ provide: NG_VALIDATORS, useValue: validateEmail, multi: &#160;}&#45;&gt;EmailValidatorDirective</title>
<path fill="none" stroke="#000000" d="M744,-119.4041C744,-119.4041 744,-140.9397 744,-140.9397"/>
<polygon fill="#000000" stroke="#000000" points="740.5001,-140.9397 744,-150.9397 747.5001,-140.9398 740.5001,-140.9397"/>
</g>
<!-- { provide: NG_VALIDATORS, useValue: passwordMatcher, multi: &#160;} -->
<g id="node5" class="node">
<title>{ provide: NG_VALIDATORS, useValue: passwordMatcher, multi: &#160;}</title>
<ellipse fill="#fdb462" stroke="#000000" cx="309" cy="-104" rx="284.9868" ry="18"/>
<text text-anchor="middle" x="309" y="-99.8" font-family="Times,serif" font-size="14.00" fill="#000000">{ provide: NG_VALIDATORS, useValue: passwordMatcher, multi: &#160;}</text>
</g>
<!-- { provide: NG_VALIDATORS, useValue: passwordMatcher, multi: &#160;}&#45;&gt;PasswordMatchDirective -->
<g id="edge4" class="edge">
<title>{ provide: NG_VALIDATORS, useValue: passwordMatcher, multi: &#160;}&#45;&gt;PasswordMatchDirective</title>
<path fill="none" stroke="#000000" d="M542.6215,-114.4434C542.6215,-114.4434 542.6215,-140.9681 542.6215,-140.9681"/>
<polygon fill="#000000" stroke="#000000" points="539.1216,-140.968 542.6215,-150.9681 546.1216,-140.9681 539.1216,-140.968"/>
</g>
<!-- CommonModule -->
<g id="node6" class="node">
<title>CommonModule</title>
<polygon fill="#8dd3c7" stroke="#000000" points="466.6681,-187 463.6681,-191 442.6681,-191 439.6681,-187 355.3319,-187 355.3319,-151 466.6681,-151 466.6681,-187"/>
<text text-anchor="middle" x="411" y="-164.8" font-family="Times,serif" font-size="14.00" fill="#000000">CommonModule</text>
</g>
<!-- CommonModule&#45;&gt;SharedModule -->
<g id="edge5" class="edge">
<title>CommonModule&#45;&gt;SharedModule</title>
<path fill="none" stroke="#000000" d="M453.8114,-187.1061C453.8114,-187.1061 453.8114,-205.991 453.8114,-205.991"/>
<polygon fill="#000000" stroke="#000000" points="450.3114,-205.9909 453.8114,-215.991 457.3114,-205.991 450.3114,-205.9909"/>
</g>
<!-- ReactiveFormsModule -->
<g id="node7" class="node">
<title>ReactiveFormsModule</title>
<polygon fill="#8dd3c7" stroke="#000000" points="337.3047,-187 334.3047,-191 313.3047,-191 310.3047,-187 192.6953,-187 192.6953,-151 337.3047,-151 337.3047,-187"/>
<text text-anchor="middle" x="265" y="-164.8" font-family="Times,serif" font-size="14.00" fill="#000000">ReactiveFormsModule</text>
</g>
<!-- ReactiveFormsModule&#45;&gt;SharedModule -->
<g id="edge6" class="edge">
<title>ReactiveFormsModule&#45;&gt;SharedModule</title>
<path fill="none" stroke="#000000" d="M322.7009,-187.0225C322.7009,-204.3734 322.7009,-228 322.7009,-228 322.7009,-228 430.7096,-228 430.7096,-228"/>
<polygon fill="#000000" stroke="#000000" points="430.7096,-231.5001 440.7096,-228 430.7096,-224.5001 430.7096,-231.5001"/>
</g>
</g>
</svg>
