<?xml version="1.0" encoding="UTF-8" standalone="no"?>
<!DOCTYPE svg PUBLIC "-//W3C//DTD SVG 1.1//EN"
 "http://www.w3.org/Graphics/SVG/1.1/DTD/svg11.dtd">
<!-- Generated by graphviz version 2.40.1 (20161225.0304)
 -->
<!-- Title: dependencies Pages: 1 -->
<svg width="562pt" height="284pt"
 viewBox="0.00 0.00 562.00 284.00" xmlns="http://www.w3.org/2000/svg" xmlns:xlink="http://www.w3.org/1999/xlink">
<g id="graph0" class="graph" transform="scale(1 1) rotate(0) translate(4 280)">
<title>dependencies</title>
<polygon fill="#ffffff" stroke="transparent" points="-4,4 -4,-280 558,-280 558,4 -4,4"/>
<text text-anchor="start" x="256.0091" y="-42.4" font-family="sans-serif" font-weight="bold" font-size="14.00" fill="#000000">Legend</text>
<polygon fill="#ffffb3" stroke="transparent" points="43,-10 43,-30 63,-30 63,-10 43,-10"/>
<text text-anchor="start" x="66.629" y="-15.4" font-family="sans-serif" font-size="14.00" fill="#000000"> &#160;Declarations</text>
<polygon fill="#8dd3c7" stroke="transparent" points="156,-10 156,-30 176,-30 176,-10 156,-10"/>
<text text-anchor="start" x="179.7251" y="-15.4" font-family="sans-serif" font-size="14.00" fill="#000000"> &#160;Module</text>
<polygon fill="#80b1d3" stroke="transparent" points="242,-10 242,-30 262,-30 262,-10 242,-10"/>
<text text-anchor="start" x="265.7812" y="-15.4" font-family="sans-serif" font-size="14.00" fill="#000000"> &#160;Bootstrap</text>
<polygon fill="#fdb462" stroke="transparent" points="339,-10 339,-30 359,-30 359,-10 339,-10"/>
<text text-anchor="start" x="362.6732" y="-15.4" font-family="sans-serif" font-size="14.00" fill="#000000"> &#160;Providers</text>
<polygon fill="#fb8072" stroke="transparent" points="435,-10 435,-30 455,-30 455,-10 435,-10"/>
<text text-anchor="start" x="458.7258" y="-15.4" font-family="sans-serif" font-size="14.00" fill="#000000"> &#160;Exports</text>
<g id="clust1" class="cluster">
<title>cluster_SignUpModule</title>
<polygon fill="none" stroke="#000000" stroke-dasharray="1,5" points="8,-70 8,-268 546,-268 546,-70 8,-70"/>
</g>
<g id="clust2" class="cluster">
<title>cluster_SignUpModule_declarations</title>
<polygon fill="none" stroke="#000000" points="304,-78 304,-130 538,-130 538,-78 304,-78"/>
</g>
<g id="clust4" class="cluster">
<title>cluster_SignUpModule_imports</title>
<polygon fill="none" stroke="#000000" points="16,-78 16,-130 296,-130 296,-78 16,-78"/>
</g>
<g id="clust5" class="cluster">
<title>cluster_SignUpModule_exports</title>
<polygon fill="none" stroke="#000000" points="120,-208 120,-260 358,-260 358,-208 120,-208"/>
</g>
<!-- SignUpRoutingModule.components -->
<g id="node1" class="node">
<title>SignUpRoutingModule.components</title>
<polygon fill="#ffffb3" stroke="#000000" points="530.1028,-122 311.8972,-122 311.8972,-86 530.1028,-86 530.1028,-122"/>
<text text-anchor="middle" x="421" y="-99.8" font-family="Times,serif" font-size="14.00" fill="#000000">SignUpRoutingModule.components</text>
</g>
<!-- SignUpModule -->
<g id="node2" class="node">
<title>SignUpModule</title>
<polygon fill="#8dd3c7" stroke="#000000" points="290.3301,-187 287.3301,-191 266.3301,-191 263.3301,-187 187.6699,-187 187.6699,-151 290.3301,-151 290.3301,-187"/>
<text text-anchor="middle" x="239" y="-164.8" font-family="Times,serif" font-size="14.00" fill="#000000">SignUpModule</text>
</g>
<!-- SignUpRoutingModule.components&#45;&gt;SignUpModule -->
<g id="edge1" class="edge">
<title>SignUpRoutingModule.components&#45;&gt;SignUpModule</title>
<path fill="none" stroke="#000000" d="M330.875,-122.1061C330.875,-141.3391 330.875,-169 330.875,-169 330.875,-169 300.3098,-169 300.3098,-169"/>
<polygon fill="#000000" stroke="#000000" points="300.3099,-165.5001 290.3098,-169 300.3098,-172.5001 300.3099,-165.5001"/>
</g>
<!-- SignUpRoutingModule.components  -->
<g id="node5" class="node">
<title>SignUpRoutingModule.components </title>
<polygon fill="#fb8072" stroke="#000000" points="350.1024,-252 127.8976,-252 127.8976,-216 350.1024,-216 350.1024,-252"/>
<text text-anchor="middle" x="239" y="-229.8" font-family="Times,serif" font-size="14.00" fill="#000000">SignUpRoutingModule.components </text>
</g>
<!-- SignUpModule&#45;&gt;SignUpRoutingModule.components  -->
<g id="edge4" class="edge">
<title>SignUpModule&#45;&gt;SignUpRoutingModule.components </title>
<path fill="none" stroke="#000000" stroke-dasharray="5,2" d="M239,-187.1061C239,-187.1061 239,-205.991 239,-205.991"/>
<polygon fill="#000000" stroke="#000000" points="235.5001,-205.9909 239,-215.991 242.5001,-205.991 235.5001,-205.9909"/>
</g>
<!-- SharedModule -->
<g id="node3" class="node">
<title>SharedModule</title>
<polygon fill="#8dd3c7" stroke="#000000" points="288.4231,-122 285.4231,-126 264.4231,-126 261.4231,-122 189.5769,-122 189.5769,-86 288.4231,-86 288.4231,-122"/>
<text text-anchor="middle" x="239" y="-99.8" font-family="Times,serif" font-size="14.00" fill="#000000">SharedModule</text>
</g>
<!-- SharedModule&#45;&gt;SignUpModule -->
<g id="edge2" class="edge">
<title>SharedModule&#45;&gt;SignUpModule</title>
<path fill="none" stroke="#000000" d="M239,-122.1061C239,-122.1061 239,-140.991 239,-140.991"/>
<polygon fill="#000000" stroke="#000000" points="235.5001,-140.9909 239,-150.991 242.5001,-140.991 235.5001,-140.9909"/>
</g>
<!-- SignUpRoutingModule -->
<g id="node4" class="node">
<title>SignUpRoutingModule</title>
<polygon fill="#8dd3c7" stroke="#000000" points="171.9481,-122 168.9481,-126 147.9481,-126 144.9481,-122 24.0519,-122 24.0519,-86 171.9481,-86 171.9481,-122"/>
<text text-anchor="middle" x="98" y="-99.8" font-family="Times,serif" font-size="14.00" fill="#000000">SignUpRoutingModule</text>
</g>
<!-- SignUpRoutingModule&#45;&gt;SignUpModule -->
<g id="edge3" class="edge">
<title>SignUpRoutingModule&#45;&gt;SignUpModule</title>
<path fill="none" stroke="#000000" d="M149.8363,-122.1061C149.8363,-141.3391 149.8363,-169 149.8363,-169 149.8363,-169 177.6497,-169 177.6497,-169"/>
<polygon fill="#000000" stroke="#000000" points="177.6497,-172.5001 187.6497,-169 177.6497,-165.5001 177.6497,-172.5001"/>
</g>
</g>
</svg>
