<?xml version="1.0" encoding="UTF-8" standalone="no"?>
<!DOCTYPE svg PUBLIC "-//W3C//DTD SVG 1.1//EN"
 "http://www.w3.org/Graphics/SVG/1.1/DTD/svg11.dtd">
<!-- Generated by graphviz version 2.40.1 (20161225.0304)
 -->
<!-- Title: dependencies Pages: 1 -->
<svg width="724pt" height="284pt"
 viewBox="0.00 0.00 724.00 284.00" xmlns="http://www.w3.org/2000/svg" xmlns:xlink="http://www.w3.org/1999/xlink">
<g id="graph0" class="graph" transform="scale(1 1) rotate(0) translate(4 280)">
<title>dependencies</title>
<polygon fill="#ffffff" stroke="transparent" points="-4,4 -4,-280 720,-280 720,4 -4,4"/>
<text text-anchor="start" x="337.0091" y="-42.4" font-family="sans-serif" font-weight="bold" font-size="14.00" fill="#000000">Legend</text>
<polygon fill="#ffffb3" stroke="transparent" points="124,-10 124,-30 144,-30 144,-10 124,-10"/>
<text text-anchor="start" x="147.629" y="-15.4" font-family="sans-serif" font-size="14.00" fill="#000000"> &#160;Declarations</text>
<polygon fill="#8dd3c7" stroke="transparent" points="237,-10 237,-30 257,-30 257,-10 237,-10"/>
<text text-anchor="start" x="260.7251" y="-15.4" font-family="sans-serif" font-size="14.00" fill="#000000"> &#160;Module</text>
<polygon fill="#80b1d3" stroke="transparent" points="323,-10 323,-30 343,-30 343,-10 323,-10"/>
<text text-anchor="start" x="346.7812" y="-15.4" font-family="sans-serif" font-size="14.00" fill="#000000"> &#160;Bootstrap</text>
<polygon fill="#fdb462" stroke="transparent" points="420,-10 420,-30 440,-30 440,-10 420,-10"/>
<text text-anchor="start" x="443.6732" y="-15.4" font-family="sans-serif" font-size="14.00" fill="#000000"> &#160;Providers</text>
<polygon fill="#fb8072" stroke="transparent" points="516,-10 516,-30 536,-30 536,-10 516,-10"/>
<text text-anchor="start" x="539.7258" y="-15.4" font-family="sans-serif" font-size="14.00" fill="#000000"> &#160;Exports</text>
<g id="clust1" class="cluster">
<title>cluster_SignUpModule</title>
<polygon fill="none" stroke="#000000" stroke-dasharray="1,5" points="8,-70 8,-268 708,-268 708,-70 8,-70"/>
</g>
<g id="clust2" class="cluster">
<title>cluster_SignUpModule_declarations</title>
<polygon fill="none" stroke="#000000" points="466,-78 466,-130 700,-130 700,-78 466,-78"/>
</g>
<g id="clust4" class="cluster">
<title>cluster_SignUpModule_imports</title>
<polygon fill="none" stroke="#000000" points="16,-78 16,-130 458,-130 458,-78 16,-78"/>
</g>
<g id="clust5" class="cluster">
<title>cluster_SignUpModule_exports</title>
<polygon fill="none" stroke="#000000" points="226,-208 226,-260 390,-260 390,-208 226,-208"/>
</g>
<!-- SignUpRoutingModule.components -->
<g id="node1" class="node">
<title>SignUpRoutingModule.components</title>
<polygon fill="#ffffb3" stroke="#000000" points="692.1028,-122 473.8972,-122 473.8972,-86 692.1028,-86 692.1028,-122"/>
<text text-anchor="middle" x="583" y="-99.8" font-family="Times,serif" font-size="14.00" fill="#000000">SignUpRoutingModule.components</text>
</g>
<!-- SignUpModule -->
<g id="node2" class="node">
<title>SignUpModule</title>
<polygon fill="#8dd3c7" stroke="#000000" points="359.3301,-187 356.3301,-191 335.3301,-191 332.3301,-187 256.6699,-187 256.6699,-151 359.3301,-151 359.3301,-187"/>
<text text-anchor="middle" x="308" y="-164.8" font-family="Times,serif" font-size="14.00" fill="#000000">SignUpModule</text>
</g>
<!-- SignUpRoutingModule.components&#45;&gt;SignUpModule -->
<g id="edge1" class="edge">
<title>SignUpRoutingModule.components&#45;&gt;SignUpModule</title>
<path fill="none" stroke="#000000" d="M583,-122.1061C583,-141.3391 583,-169 583,-169 583,-169 369.4028,-169 369.4028,-169"/>
<polygon fill="#000000" stroke="#000000" points="369.4028,-165.5001 359.4028,-169 369.4028,-172.5001 369.4028,-165.5001"/>
</g>
<!-- ReactiveFormsModule  -->
<g id="node6" class="node">
<title>ReactiveFormsModule </title>
<polygon fill="#fb8072" stroke="#000000" points="381.8045,-252 234.1955,-252 234.1955,-216 381.8045,-216 381.8045,-252"/>
<text text-anchor="middle" x="308" y="-229.8" font-family="Times,serif" font-size="14.00" fill="#000000">ReactiveFormsModule </text>
</g>
<!-- SignUpModule&#45;&gt;ReactiveFormsModule  -->
<g id="edge5" class="edge">
<title>SignUpModule&#45;&gt;ReactiveFormsModule </title>
<path fill="none" stroke="#000000" stroke-dasharray="5,2" d="M308,-187.1061C308,-187.1061 308,-205.991 308,-205.991"/>
<polygon fill="#000000" stroke="#000000" points="304.5001,-205.9909 308,-215.991 311.5001,-205.991 304.5001,-205.9909"/>
</g>
<!-- ReactiveFormsModule -->
<g id="node3" class="node">
<title>ReactiveFormsModule</title>
<polygon fill="#8dd3c7" stroke="#000000" points="450.3047,-122 447.3047,-126 426.3047,-126 423.3047,-122 305.6953,-122 305.6953,-86 450.3047,-86 450.3047,-122"/>
<text text-anchor="middle" x="378" y="-99.8" font-family="Times,serif" font-size="14.00" fill="#000000">ReactiveFormsModule</text>
</g>
<!-- ReactiveFormsModule&#45;&gt;SignUpModule -->
<g id="edge2" class="edge">
<title>ReactiveFormsModule&#45;&gt;SignUpModule</title>
<path fill="none" stroke="#000000" d="M332.5063,-122.1061C332.5063,-122.1061 332.5063,-140.991 332.5063,-140.991"/>
<polygon fill="#000000" stroke="#000000" points="329.0064,-140.9909 332.5063,-150.991 336.0064,-140.991 329.0064,-140.9909"/>
</g>
<!-- SharedModule -->
<g id="node4" class="node">
<title>SharedModule</title>
<polygon fill="#8dd3c7" stroke="#000000" points="288.4231,-122 285.4231,-126 264.4231,-126 261.4231,-122 189.5769,-122 189.5769,-86 288.4231,-86 288.4231,-122"/>
<text text-anchor="middle" x="239" y="-99.8" font-family="Times,serif" font-size="14.00" fill="#000000">SharedModule</text>
</g>
<!-- SharedModule&#45;&gt;SignUpModule -->
<g id="edge3" class="edge">
<title>SharedModule&#45;&gt;SignUpModule</title>
<path fill="none" stroke="#000000" d="M272.5232,-122.1061C272.5232,-122.1061 272.5232,-140.991 272.5232,-140.991"/>
<polygon fill="#000000" stroke="#000000" points="269.0232,-140.9909 272.5232,-150.991 276.0232,-140.991 269.0232,-140.9909"/>
</g>
<!-- SignUpRoutingModule -->
<g id="node5" class="node">
<title>SignUpRoutingModule</title>
<polygon fill="#8dd3c7" stroke="#000000" points="171.9481,-122 168.9481,-126 147.9481,-126 144.9481,-122 24.0519,-122 24.0519,-86 171.9481,-86 171.9481,-122"/>
<text text-anchor="middle" x="98" y="-99.8" font-family="Times,serif" font-size="14.00" fill="#000000">SignUpRoutingModule</text>
</g>
<!-- SignUpRoutingModule&#45;&gt;SignUpModule -->
<g id="edge4" class="edge">
<title>SignUpRoutingModule&#45;&gt;SignUpModule</title>
<path fill="none" stroke="#000000" d="M98,-122.1061C98,-141.3391 98,-169 98,-169 98,-169 246.6282,-169 246.6282,-169"/>
<polygon fill="#000000" stroke="#000000" points="246.6283,-172.5001 256.6282,-169 246.6282,-165.5001 246.6283,-172.5001"/>
</g>
</g>
</svg>
