<?xml version="1.0" encoding="UTF-8" standalone="no"?>
<!DOCTYPE svg PUBLIC "-//W3C//DTD SVG 1.1//EN"
 "http://www.w3.org/Graphics/SVG/1.1/DTD/svg11.dtd">
<!-- Generated by graphviz version 2.40.1 (20161225.0304)
 -->
<!-- Title: dependencies Pages: 1 -->
<svg width="545pt" height="284pt"
 viewBox="0.00 0.00 545.00 284.00" xmlns="http://www.w3.org/2000/svg" xmlns:xlink="http://www.w3.org/1999/xlink">
<g id="graph0" class="graph" transform="scale(1 1) rotate(0) translate(4 280)">
<title>dependencies</title>
<polygon fill="#ffffff" stroke="transparent" points="-4,4 -4,-280 541,-280 541,4 -4,4"/>
<text text-anchor="start" x="247.5091" y="-42.4" font-family="sans-serif" font-weight="bold" font-size="14.00" fill="#000000">Legend</text>
<polygon fill="#ffffb3" stroke="transparent" points="34.5,-10 34.5,-30 54.5,-30 54.5,-10 34.5,-10"/>
<text text-anchor="start" x="58.129" y="-15.4" font-family="sans-serif" font-size="14.00" fill="#000000"> &#160;Declarations</text>
<polygon fill="#8dd3c7" stroke="transparent" points="147.5,-10 147.5,-30 167.5,-30 167.5,-10 147.5,-10"/>
<text text-anchor="start" x="171.2251" y="-15.4" font-family="sans-serif" font-size="14.00" fill="#000000"> &#160;Module</text>
<polygon fill="#80b1d3" stroke="transparent" points="233.5,-10 233.5,-30 253.5,-30 253.5,-10 233.5,-10"/>
<text text-anchor="start" x="257.2812" y="-15.4" font-family="sans-serif" font-size="14.00" fill="#000000"> &#160;Bootstrap</text>
<polygon fill="#fdb462" stroke="transparent" points="330.5,-10 330.5,-30 350.5,-30 350.5,-10 330.5,-10"/>
<text text-anchor="start" x="354.1732" y="-15.4" font-family="sans-serif" font-size="14.00" fill="#000000"> &#160;Providers</text>
<polygon fill="#fb8072" stroke="transparent" points="426.5,-10 426.5,-30 446.5,-30 446.5,-10 426.5,-10"/>
<text text-anchor="start" x="450.2258" y="-15.4" font-family="sans-serif" font-size="14.00" fill="#000000"> &#160;Exports</text>
<g id="clust1" class="cluster">
<title>cluster_HomeModule</title>
<polygon fill="none" stroke="#000000" stroke-dasharray="1,5" points="8,-70 8,-268 529,-268 529,-70 8,-70"/>
</g>
<g id="clust2" class="cluster">
<title>cluster_HomeModule_declarations</title>
<polygon fill="none" stroke="#000000" points="295,-78 295,-130 521,-130 521,-78 295,-78"/>
</g>
<g id="clust4" class="cluster">
<title>cluster_HomeModule_imports</title>
<polygon fill="none" stroke="#000000" points="16,-78 16,-130 287,-130 287,-78 16,-78"/>
</g>
<g id="clust5" class="cluster">
<title>cluster_HomeModule_exports</title>
<polygon fill="none" stroke="#000000" points="115,-208 115,-260 345,-260 345,-208 115,-208"/>
</g>
<!-- HomeRoutingModule.components -->
<g id="node1" class="node">
<title>HomeRoutingModule.components</title>
<polygon fill="#ffffb3" stroke="#000000" points="513.0344,-122 302.9656,-122 302.9656,-86 513.0344,-86 513.0344,-122"/>
<text text-anchor="middle" x="408" y="-99.8" font-family="Times,serif" font-size="14.00" fill="#000000">HomeRoutingModule.components</text>
</g>
<!-- HomeModule -->
<g id="node2" class="node">
<title>HomeModule</title>
<polygon fill="#8dd3c7" stroke="#000000" points="276.7619,-187 273.7619,-191 252.7619,-191 249.7619,-187 183.2381,-187 183.2381,-151 276.7619,-151 276.7619,-187"/>
<text text-anchor="middle" x="230" y="-164.8" font-family="Times,serif" font-size="14.00" fill="#000000">HomeModule</text>
</g>
<!-- HomeRoutingModule.components&#45;&gt;HomeModule -->
<g id="edge1" class="edge">
<title>HomeRoutingModule.components&#45;&gt;HomeModule</title>
<path fill="none" stroke="#000000" d="M319.875,-122.1061C319.875,-141.3391 319.875,-169 319.875,-169 319.875,-169 286.7802,-169 286.7802,-169"/>
<polygon fill="#000000" stroke="#000000" points="286.7802,-165.5001 276.7802,-169 286.7801,-172.5001 286.7802,-165.5001"/>
</g>
<!-- HomeRoutingModule.components  -->
<g id="node5" class="node">
<title>HomeRoutingModule.components </title>
<polygon fill="#fb8072" stroke="#000000" points="336.5349,-252 123.4651,-252 123.4651,-216 336.5349,-216 336.5349,-252"/>
<text text-anchor="middle" x="230" y="-229.8" font-family="Times,serif" font-size="14.00" fill="#000000">HomeRoutingModule.components </text>
</g>
<!-- HomeModule&#45;&gt;HomeRoutingModule.components  -->
<g id="edge4" class="edge">
<title>HomeModule&#45;&gt;HomeRoutingModule.components </title>
<path fill="none" stroke="#000000" stroke-dasharray="5,2" d="M230,-187.1061C230,-187.1061 230,-205.991 230,-205.991"/>
<polygon fill="#000000" stroke="#000000" points="226.5001,-205.9909 230,-215.991 233.5001,-205.991 226.5001,-205.9909"/>
</g>
<!-- SharedModule -->
<g id="node3" class="node">
<title>SharedModule</title>
<polygon fill="#8dd3c7" stroke="#000000" points="279.4231,-122 276.4231,-126 255.4231,-126 252.4231,-122 180.5769,-122 180.5769,-86 279.4231,-86 279.4231,-122"/>
<text text-anchor="middle" x="230" y="-99.8" font-family="Times,serif" font-size="14.00" fill="#000000">SharedModule</text>
</g>
<!-- SharedModule&#45;&gt;HomeModule -->
<g id="edge2" class="edge">
<title>SharedModule&#45;&gt;HomeModule</title>
<path fill="none" stroke="#000000" d="M230,-122.1061C230,-122.1061 230,-140.991 230,-140.991"/>
<polygon fill="#000000" stroke="#000000" points="226.5001,-140.9909 230,-150.991 233.5001,-140.991 226.5001,-140.9909"/>
</g>
<!-- HomeRoutingModule -->
<g id="node4" class="node">
<title>HomeRoutingModule</title>
<polygon fill="#8dd3c7" stroke="#000000" points="162.3795,-122 159.3795,-126 138.3795,-126 135.3795,-122 23.6205,-122 23.6205,-86 162.3795,-86 162.3795,-122"/>
<text text-anchor="middle" x="93" y="-99.8" font-family="Times,serif" font-size="14.00" fill="#000000">HomeRoutingModule</text>
</g>
<!-- HomeRoutingModule&#45;&gt;HomeModule -->
<g id="edge3" class="edge">
<title>HomeRoutingModule&#45;&gt;HomeModule</title>
<path fill="none" stroke="#000000" d="M142.8363,-122.1061C142.8363,-141.3391 142.8363,-169 142.8363,-169 142.8363,-169 173.1013,-169 173.1013,-169"/>
<polygon fill="#000000" stroke="#000000" points="173.1013,-172.5001 183.1013,-169 173.1012,-165.5001 173.1013,-172.5001"/>
</g>
</g>
</svg>
