<?xml version="1.0" encoding="UTF-8" standalone="no"?>
<!DOCTYPE svg PUBLIC "-//W3C//DTD SVG 1.1//EN"
 "http://www.w3.org/Graphics/SVG/1.1/DTD/svg11.dtd">
<!-- Generated by graphviz version 2.40.1 (20161225.0304)
 -->
<!-- Title: dependencies Pages: 1 -->
<svg width="1107pt" height="284pt"
 viewBox="0.00 0.00 1107.00 284.00" xmlns="http://www.w3.org/2000/svg" xmlns:xlink="http://www.w3.org/1999/xlink">
<g id="graph0" class="graph" transform="scale(1 1) rotate(0) translate(4 280)">
<title>dependencies</title>
<polygon fill="#ffffff" stroke="transparent" points="-4,4 -4,-280 1103,-280 1103,4 -4,4"/>
<text text-anchor="start" x="528.5091" y="-42.4" font-family="sans-serif" font-weight="bold" font-size="14.00" fill="#000000">Legend</text>
<polygon fill="#ffffb3" stroke="transparent" points="315.5,-10 315.5,-30 335.5,-30 335.5,-10 315.5,-10"/>
<text text-anchor="start" x="339.129" y="-15.4" font-family="sans-serif" font-size="14.00" fill="#000000"> &#160;Declarations</text>
<polygon fill="#8dd3c7" stroke="transparent" points="428.5,-10 428.5,-30 448.5,-30 448.5,-10 428.5,-10"/>
<text text-anchor="start" x="452.2251" y="-15.4" font-family="sans-serif" font-size="14.00" fill="#000000"> &#160;Module</text>
<polygon fill="#80b1d3" stroke="transparent" points="514.5,-10 514.5,-30 534.5,-30 534.5,-10 514.5,-10"/>
<text text-anchor="start" x="538.2812" y="-15.4" font-family="sans-serif" font-size="14.00" fill="#000000"> &#160;Bootstrap</text>
<polygon fill="#fdb462" stroke="transparent" points="611.5,-10 611.5,-30 631.5,-30 631.5,-10 611.5,-10"/>
<text text-anchor="start" x="635.1732" y="-15.4" font-family="sans-serif" font-size="14.00" fill="#000000"> &#160;Providers</text>
<polygon fill="#fb8072" stroke="transparent" points="707.5,-10 707.5,-30 727.5,-30 727.5,-10 707.5,-10"/>
<text text-anchor="start" x="731.2258" y="-15.4" font-family="sans-serif" font-size="14.00" fill="#000000"> &#160;Exports</text>
<g id="clust1" class="cluster">
<title>cluster_AppModule</title>
<polygon fill="none" stroke="#000000" stroke-dasharray="1,5" points="8,-70 8,-268 1091,-268 1091,-70 8,-70"/>
</g>
<g id="clust2" class="cluster">
<title>cluster_AppModule_declarations</title>
<polygon fill="none" stroke="#000000" points="961,-78 961,-130 1083,-130 1083,-78 961,-78"/>
</g>
<g id="clust4" class="cluster">
<title>cluster_AppModule_imports</title>
<polygon fill="none" stroke="#000000" points="16,-78 16,-130 953,-130 953,-78 16,-78"/>
</g>
<g id="clust6" class="cluster">
<title>cluster_AppModule_bootstrap</title>
<polygon fill="none" stroke="#000000" points="493,-208 493,-260 617,-260 617,-208 493,-208"/>
</g>
<!-- AppComponent -->
<g id="node1" class="node">
<title>AppComponent</title>
<polygon fill="#ffffb3" stroke="#000000" points="1074.9399,-122 969.0601,-122 969.0601,-86 1074.9399,-86 1074.9399,-122"/>
<text text-anchor="middle" x="1022" y="-99.8" font-family="Times,serif" font-size="14.00" fill="#000000">AppComponent</text>
</g>
<!-- AppModule -->
<g id="node2" class="node">
<title>AppModule</title>
<polygon fill="#8dd3c7" stroke="#000000" points="596.6571,-187 593.6571,-191 572.6571,-191 569.6571,-187 513.3429,-187 513.3429,-151 596.6571,-151 596.6571,-187"/>
<text text-anchor="middle" x="555" y="-164.8" font-family="Times,serif" font-size="14.00" fill="#000000">AppModule</text>
</g>
<!-- AppComponent&#45;&gt;AppModule -->
<g id="edge1" class="edge">
<title>AppComponent&#45;&gt;AppModule</title>
<path fill="none" stroke="#000000" d="M1022,-122.0109C1022,-144.4852 1022,-180 1022,-180 1022,-180 606.8541,-180 606.8541,-180"/>
<polygon fill="#000000" stroke="#000000" points="606.8542,-176.5001 596.8541,-180 606.8541,-183.5001 606.8542,-176.5001"/>
</g>
<!-- AppComponent  -->
<g id="node11" class="node">
<title>AppComponent </title>
<polygon fill="#80b1d3" stroke="#000000" points="609.439,-252 500.561,-252 500.561,-216 609.439,-216 609.439,-252"/>
<text text-anchor="middle" x="555" y="-229.8" font-family="Times,serif" font-size="14.00" fill="#000000">AppComponent </text>
</g>
<!-- AppModule&#45;&gt;AppComponent  -->
<g id="edge10" class="edge">
<title>AppModule&#45;&gt;AppComponent </title>
<path fill="none" stroke="#000000" stroke-dasharray="1,5" d="M555,-187.1061C555,-187.1061 555,-205.991 555,-205.991"/>
<polygon fill="#000000" stroke="#000000" points="551.5001,-205.9909 555,-215.991 558.5001,-205.991 551.5001,-205.9909"/>
</g>
<!-- BrowserModule -->
<g id="node3" class="node">
<title>BrowserModule</title>
<polygon fill="#8dd3c7" stroke="#000000" points="945.4734,-122 942.4734,-126 921.4734,-126 918.4734,-122 838.5266,-122 838.5266,-86 945.4734,-86 945.4734,-122"/>
<text text-anchor="middle" x="892" y="-99.8" font-family="Times,serif" font-size="14.00" fill="#000000">BrowserModule</text>
</g>
<!-- BrowserModule&#45;&gt;AppModule -->
<g id="edge2" class="edge">
<title>BrowserModule&#45;&gt;AppModule</title>
<path fill="none" stroke="#000000" d="M892,-122.1289C892,-142.5724 892,-173 892,-173 892,-173 606.6608,-173 606.6608,-173"/>
<polygon fill="#000000" stroke="#000000" points="606.6608,-169.5001 596.6608,-173 606.6608,-176.5001 606.6608,-169.5001"/>
</g>
<!-- HttpModule -->
<g id="node4" class="node">
<title>HttpModule</title>
<polygon fill="#8dd3c7" stroke="#000000" points="820.4387,-122 817.4387,-126 796.4387,-126 793.4387,-122 735.5613,-122 735.5613,-86 820.4387,-86 820.4387,-122"/>
<text text-anchor="middle" x="778" y="-99.8" font-family="Times,serif" font-size="14.00" fill="#000000">HttpModule</text>
</g>
<!-- HttpModule&#45;&gt;AppModule -->
<g id="edge3" class="edge">
<title>HttpModule&#45;&gt;AppModule</title>
<path fill="none" stroke="#000000" d="M778,-122.2667C778,-140.5552 778,-166 778,-166 778,-166 606.683,-166 606.683,-166"/>
<polygon fill="#000000" stroke="#000000" points="606.683,-162.5001 596.683,-166 606.683,-169.5001 606.683,-162.5001"/>
</g>
<!-- HomeModule -->
<g id="node5" class="node">
<title>HomeModule</title>
<polygon fill="#8dd3c7" stroke="#000000" points="717.7619,-122 714.7619,-126 693.7619,-126 690.7619,-122 624.2381,-122 624.2381,-86 717.7619,-86 717.7619,-122"/>
<text text-anchor="middle" x="671" y="-99.8" font-family="Times,serif" font-size="14.00" fill="#000000">HomeModule</text>
</g>
<!-- HomeModule&#45;&gt;AppModule -->
<g id="edge4" class="edge">
<title>HomeModule&#45;&gt;AppModule</title>
<path fill="none" stroke="#000000" d="M671,-122.0091C671,-138.0494 671,-159 671,-159 671,-159 606.8787,-159 606.8787,-159"/>
<polygon fill="#000000" stroke="#000000" points="606.8787,-155.5001 596.8787,-159 606.8786,-162.5001 606.8787,-155.5001"/>
</g>
<!-- SignUpModule -->
<g id="node6" class="node">
<title>SignUpModule</title>
<polygon fill="#8dd3c7" stroke="#000000" points="606.3301,-122 603.3301,-126 582.3301,-126 579.3301,-122 503.6699,-122 503.6699,-86 606.3301,-86 606.3301,-122"/>
<text text-anchor="middle" x="555" y="-99.8" font-family="Times,serif" font-size="14.00" fill="#000000">SignUpModule</text>
</g>
<!-- SignUpModule&#45;&gt;AppModule -->
<g id="edge5" class="edge">
<title>SignUpModule&#45;&gt;AppModule</title>
<path fill="none" stroke="#000000" d="M555,-122.1061C555,-122.1061 555,-140.991 555,-140.991"/>
<polygon fill="#000000" stroke="#000000" points="551.5001,-140.9909 555,-150.991 558.5001,-140.991 551.5001,-140.9909"/>
</g>
<!-- LoginModule -->
<g id="node7" class="node">
<title>LoginModule</title>
<polygon fill="#8dd3c7" stroke="#000000" points="485.493,-122 482.493,-126 461.493,-126 458.493,-122 392.507,-122 392.507,-86 485.493,-86 485.493,-122"/>
<text text-anchor="middle" x="439" y="-99.8" font-family="Times,serif" font-size="14.00" fill="#000000">LoginModule</text>
</g>
<!-- LoginModule&#45;&gt;AppModule -->
<g id="edge6" class="edge">
<title>LoginModule&#45;&gt;AppModule</title>
<path fill="none" stroke="#000000" d="M439,-122.0091C439,-138.0494 439,-159 439,-159 439,-159 503.1213,-159 503.1213,-159"/>
<polygon fill="#000000" stroke="#000000" points="503.1214,-162.5001 513.1213,-159 503.1213,-155.5001 503.1214,-162.5001"/>
</g>
<!-- AppRoutingModule -->
<g id="node8" class="node">
<title>AppRoutingModule</title>
<polygon fill="#8dd3c7" stroke="#000000" points="374.2744,-122 371.2744,-126 350.2744,-126 347.2744,-122 245.7256,-122 245.7256,-86 374.2744,-86 374.2744,-122"/>
<text text-anchor="middle" x="310" y="-99.8" font-family="Times,serif" font-size="14.00" fill="#000000">AppRoutingModule</text>
</g>
<!-- AppRoutingModule&#45;&gt;AppModule -->
<g id="edge7" class="edge">
<title>AppRoutingModule&#45;&gt;AppModule</title>
<path fill="none" stroke="#000000" d="M310,-122.2667C310,-140.5552 310,-166 310,-166 310,-166 503.1614,-166 503.1614,-166"/>
<polygon fill="#000000" stroke="#000000" points="503.1614,-169.5001 513.1614,-166 503.1613,-162.5001 503.1614,-169.5001"/>
</g>
<!-- SharedModule -->
<g id="node9" class="node">
<title>SharedModule</title>
<polygon fill="#8dd3c7" stroke="#000000" points="227.4231,-122 224.4231,-126 203.4231,-126 200.4231,-122 128.5769,-122 128.5769,-86 227.4231,-86 227.4231,-122"/>
<text text-anchor="middle" x="178" y="-99.8" font-family="Times,serif" font-size="14.00" fill="#000000">SharedModule</text>
</g>
<!-- SharedModule&#45;&gt;AppModule -->
<g id="edge8" class="edge">
<title>SharedModule&#45;&gt;AppModule</title>
<path fill="none" stroke="#000000" d="M178,-122.1289C178,-142.5724 178,-173 178,-173 178,-173 503.214,-173 503.214,-173"/>
<polygon fill="#000000" stroke="#000000" points="503.214,-176.5001 513.214,-173 503.2139,-169.5001 503.214,-176.5001"/>
</g>
<!-- CoreModule -->
<g id="node10" class="node">
<title>CoreModule</title>
<polygon fill="#8dd3c7" stroke="#000000" points="110.2619,-122 107.2619,-126 86.2619,-126 83.2619,-122 23.7381,-122 23.7381,-86 110.2619,-86 110.2619,-122"/>
<text text-anchor="middle" x="67" y="-99.8" font-family="Times,serif" font-size="14.00" fill="#000000">CoreModule</text>
</g>
<!-- CoreModule&#45;&gt;AppModule -->
<g id="edge9" class="edge">
<title>CoreModule&#45;&gt;AppModule</title>
<path fill="none" stroke="#000000" d="M67,-122.0109C67,-144.4852 67,-180 67,-180 67,-180 502.971,-180 502.971,-180"/>
<polygon fill="#000000" stroke="#000000" points="502.9711,-183.5001 512.971,-180 502.971,-176.5001 502.9711,-183.5001"/>
</g>
</g>
</svg>
