<?xml version="1.0" encoding="UTF-8" standalone="no"?>
<!DOCTYPE svg PUBLIC "-//W3C//DTD SVG 1.1//EN"
 "http://www.w3.org/Graphics/SVG/1.1/DTD/svg11.dtd">
<!-- Generated by graphviz version 2.40.1 (20161225.0304)
 -->
<!-- Title: dependencies Pages: 1 -->
<svg width="3380pt" height="450pt"
 viewBox="0.00 0.00 3380.00 450.00" xmlns="http://www.w3.org/2000/svg" xmlns:xlink="http://www.w3.org/1999/xlink">
<g id="graph0" class="graph" transform="scale(1 1) rotate(0) translate(4 446)">
<title>dependencies</title>
<polygon fill="#ffffff" stroke="transparent" points="-4,4 -4,-446 3376,-446 3376,4 -4,4"/>
<text text-anchor="start" x="1665.0091" y="-42.4" font-family="sans-serif" font-weight="bold" font-size="14.00" fill="#000000">Legend</text>
<polygon fill="#ffffb3" stroke="transparent" points="1452,-10 1452,-30 1472,-30 1472,-10 1452,-10"/>
<text text-anchor="start" x="1475.629" y="-15.4" font-family="sans-serif" font-size="14.00" fill="#000000"> &#160;Declarations</text>
<polygon fill="#8dd3c7" stroke="transparent" points="1565,-10 1565,-30 1585,-30 1585,-10 1565,-10"/>
<text text-anchor="start" x="1588.7251" y="-15.4" font-family="sans-serif" font-size="14.00" fill="#000000"> &#160;Module</text>
<polygon fill="#80b1d3" stroke="transparent" points="1651,-10 1651,-30 1671,-30 1671,-10 1651,-10"/>
<text text-anchor="start" x="1674.7812" y="-15.4" font-family="sans-serif" font-size="14.00" fill="#000000"> &#160;Bootstrap</text>
<polygon fill="#fdb462" stroke="transparent" points="1748,-10 1748,-30 1768,-30 1768,-10 1748,-10"/>
<text text-anchor="start" x="1771.6732" y="-15.4" font-family="sans-serif" font-size="14.00" fill="#000000"> &#160;Providers</text>
<polygon fill="#fb8072" stroke="transparent" points="1844,-10 1844,-30 1864,-30 1864,-10 1844,-10"/>
<text text-anchor="start" x="1867.7258" y="-15.4" font-family="sans-serif" font-size="14.00" fill="#000000"> &#160;Exports</text>
<g id="clust1" class="cluster">
<title>cluster_AppModule</title>
<polygon fill="none" stroke="#000000" stroke-dasharray="1,5" points="1490,-146 1490,-434 2100,-434 2100,-146 1490,-146"/>
</g>
<g id="clust3" class="cluster">
<title>cluster_AppModule_imports</title>
<polygon fill="none" stroke="#000000" points="1498,-154 1498,-282 2092,-282 2092,-154 1498,-154"/>
</g>
<g id="clust5" class="cluster">
<title>cluster_AppModule_bootstrap</title>
<polygon fill="none" stroke="#000000" points="1668,-374 1668,-426 1792,-426 1792,-374 1668,-374"/>
</g>
<g id="clust7" class="cluster">
<title>cluster_AppRoutingModule</title>
<polygon fill="none" stroke="#000000" stroke-dasharray="1,5" points="2135,-222 2135,-290 2471,-290 2471,-222 2135,-222"/>
</g>
<g id="clust9" class="cluster">
<title>cluster_AppRoutingModule_imports</title>
<polygon fill="none" stroke="#000000" points="2143,-230 2143,-282 2337,-282 2337,-230 2143,-230"/>
</g>
<g id="clust10" class="cluster">
<title>cluster_AppRoutingModule_exports</title>
<polygon fill="none" stroke="#000000" points="2345,-230 2345,-282 2463,-282 2463,-230 2345,-230"/>
</g>
<g id="clust13" class="cluster">
<title>cluster_CoreModule</title>
<polygon fill="none" stroke="#000000" stroke-dasharray="1,5" points="8,-222 8,-290 508,-290 508,-222 8,-222"/>
</g>
<g id="clust15" class="cluster">
<title>cluster_CoreModule_imports</title>
<polygon fill="none" stroke="#000000" points="278,-230 278,-282 500,-282 500,-230 278,-230"/>
</g>
<g id="clust16" class="cluster">
<title>cluster_CoreModule_exports</title>
<polygon fill="none" stroke="#000000" points="16,-230 16,-282 270,-282 270,-230 16,-230"/>
</g>
<g id="clust19" class="cluster">
<title>cluster_HomeModule</title>
<polygon fill="none" stroke="#000000" stroke-dasharray="1,5" points="2108,-146 2108,-214 2516,-214 2516,-146 2108,-146"/>
</g>
<g id="clust21" class="cluster">
<title>cluster_HomeModule_imports</title>
<polygon fill="none" stroke="#000000" points="2354,-154 2354,-206 2508,-206 2508,-154 2354,-154"/>
</g>
<g id="clust22" class="cluster">
<title>cluster_HomeModule_exports</title>
<polygon fill="none" stroke="#000000" points="2116,-154 2116,-206 2346,-206 2346,-154 2116,-154"/>
</g>
<g id="clust25" class="cluster">
<title>cluster_HomeRoutingModule</title>
<polygon fill="none" stroke="#000000" stroke-dasharray="1,5" points="2753,-70 2753,-138 2967,-138 2967,-70 2753,-70"/>
</g>
<g id="clust27" class="cluster">
<title>cluster_HomeRoutingModule_imports</title>
<polygon fill="none" stroke="#000000" points="2761,-78 2761,-130 2959,-130 2959,-78 2761,-78"/>
</g>
<g id="clust31" class="cluster">
<title>cluster_LoginModule</title>
<polygon fill="none" stroke="#000000" stroke-dasharray="1,5" points="2958,-146 2958,-214 3364,-214 3364,-146 2958,-146"/>
</g>
<g id="clust33" class="cluster">
<title>cluster_LoginModule_imports</title>
<polygon fill="none" stroke="#000000" points="3202,-154 3202,-206 3356,-206 3356,-154 3202,-154"/>
</g>
<g id="clust34" class="cluster">
<title>cluster_LoginModule_exports</title>
<polygon fill="none" stroke="#000000" points="2966,-154 2966,-206 3194,-206 3194,-154 2966,-154"/>
</g>
<g id="clust43" class="cluster">
<title>cluster_SharedModule</title>
<polygon fill="none" stroke="#000000" stroke-dasharray="1,5" points="516,-222 516,-290 1482,-290 1482,-222 516,-222"/>
</g>
<g id="clust45" class="cluster">
<title>cluster_SharedModule_imports</title>
<polygon fill="none" stroke="#000000" points="1184,-230 1184,-282 1474,-282 1474,-230 1184,-230"/>
</g>
<g id="clust46" class="cluster">
<title>cluster_SharedModule_exports</title>
<polygon fill="none" stroke="#000000" points="524,-230 524,-282 1176,-282 1176,-230 524,-230"/>
</g>
<g id="clust49" class="cluster">
<title>cluster_SignUpModule</title>
<polygon fill="none" stroke="#000000" stroke-dasharray="1,5" points="2524,-146 2524,-214 2950,-214 2950,-146 2524,-146"/>
</g>
<g id="clust51" class="cluster">
<title>cluster_SignUpModule_imports</title>
<polygon fill="none" stroke="#000000" points="2778,-154 2778,-206 2942,-206 2942,-154 2778,-154"/>
</g>
<g id="clust52" class="cluster">
<title>cluster_SignUpModule_exports</title>
<polygon fill="none" stroke="#000000" points="2532,-154 2532,-206 2770,-206 2770,-154 2532,-154"/>
</g>
<g id="clust61" class="cluster">
<title>cluster_ToastModule</title>
<polygon fill="none" stroke="#000000" stroke-dasharray="1,5" points="257,-298 257,-366 405,-366 405,-298 257,-298"/>
</g>
<g id="clust64" class="cluster">
<title>cluster_ToastModule_exports</title>
<polygon fill="none" stroke="#000000" points="265,-306 265,-358 397,-358 397,-306 265,-306"/>
</g>
<!-- BrowserModule -->
<g id="node1" class="node">
<title>BrowserModule</title>
<polygon fill="#8dd3c7" stroke="#000000" points="1834.4734,-198 1831.4734,-202 1810.4734,-202 1807.4734,-198 1727.5266,-198 1727.5266,-162 1834.4734,-162 1834.4734,-198"/>
<text text-anchor="middle" x="1781" y="-175.8" font-family="Times,serif" font-size="14.00" fill="#000000">BrowserModule</text>
</g>
<!-- AppModule -->
<g id="node9" class="node">
<title>AppModule</title>
<polygon fill="#8dd3c7" stroke="#000000" points="1771.6571,-350 1768.6571,-354 1747.6571,-354 1744.6571,-350 1688.3429,-350 1688.3429,-314 1771.6571,-314 1771.6571,-350"/>
<text text-anchor="middle" x="1730" y="-327.8" font-family="Times,serif" font-size="14.00" fill="#000000">AppModule</text>
</g>
<!-- BrowserModule&#45;&gt;AppModule -->
<g id="edge1" class="edge">
<title>BrowserModule&#45;&gt;AppModule</title>
<path fill="none" stroke="#000000" d="M1743.3163,-198.0333C1743.3163,-198.0333 1743.3163,-303.9902 1743.3163,-303.9902"/>
<polygon fill="#000000" stroke="#000000" points="1739.8163,-303.9901 1743.3163,-313.9902 1746.8163,-303.9902 1739.8163,-303.9901"/>
</g>
<!-- HttpModule -->
<g id="node2" class="node">
<title>HttpModule</title>
<polygon fill="#8dd3c7" stroke="#000000" points="1937.4387,-198 1934.4387,-202 1913.4387,-202 1910.4387,-198 1852.5613,-198 1852.5613,-162 1937.4387,-162 1937.4387,-198"/>
<text text-anchor="middle" x="1895" y="-175.8" font-family="Times,serif" font-size="14.00" fill="#000000">HttpModule</text>
</g>
<!-- HttpModule&#45;&gt;AppModule -->
<g id="edge2" class="edge">
<title>HttpModule&#45;&gt;AppModule</title>
<path fill="none" stroke="#000000" d="M1861.858,-198.2733C1861.858,-236.6253 1861.858,-322 1861.858,-322 1861.858,-322 1781.7207,-322 1781.7207,-322"/>
<polygon fill="#000000" stroke="#000000" points="1781.7207,-318.5001 1771.7207,-322 1781.7207,-325.5001 1781.7207,-318.5001"/>
</g>
<!-- HomeModule -->
<g id="node3" class="node">
<title>HomeModule</title>
<polygon fill="#8dd3c7" stroke="#000000" points="1852.7619,-274 1849.7619,-278 1828.7619,-278 1825.7619,-274 1759.2381,-274 1759.2381,-238 1852.7619,-238 1852.7619,-274"/>
<text text-anchor="middle" x="1806" y="-251.8" font-family="Times,serif" font-size="14.00" fill="#000000">HomeModule</text>
</g>
<!-- HomeModule&#45;&gt;AppModule -->
<g id="edge3" class="edge">
<title>HomeModule&#45;&gt;AppModule</title>
<path fill="none" stroke="#000000" d="M1765.4737,-274.0109C1765.4737,-274.0109 1765.4737,-303.855 1765.4737,-303.855"/>
<polygon fill="#000000" stroke="#000000" points="1761.9738,-303.8549 1765.4737,-313.855 1768.9738,-303.855 1761.9738,-303.8549"/>
</g>
<!-- HomeRoutingModule.components  -->
<g id="node18" class="node">
<title>HomeRoutingModule.components </title>
<polygon fill="#fb8072" stroke="#000000" points="2337.5349,-198 2124.4651,-198 2124.4651,-162 2337.5349,-162 2337.5349,-198"/>
<text text-anchor="middle" x="2231" y="-175.8" font-family="Times,serif" font-size="14.00" fill="#000000">HomeRoutingModule.components </text>
</g>
<!-- HomeModule&#45;&gt;HomeRoutingModule.components  -->
<g id="edge19" class="edge">
<title>HomeModule&#45;&gt;HomeRoutingModule.components </title>
<path fill="none" stroke="#000000" stroke-dasharray="5,2" d="M1846.683,-237.8975C1846.683,-226.9141 1846.683,-215 1846.683,-215 1846.683,-215 2137.781,-215 2137.781,-215 2137.781,-215 2137.781,-208.32 2137.781,-208.32"/>
<polygon fill="#000000" stroke="#000000" points="2141.2811,-208.32 2137.781,-198.32 2134.2811,-208.3201 2141.2811,-208.32"/>
</g>
<!-- SignUpModule -->
<g id="node4" class="node">
<title>SignUpModule</title>
<polygon fill="#8dd3c7" stroke="#000000" points="1973.3301,-274 1970.3301,-278 1949.3301,-278 1946.3301,-274 1870.6699,-274 1870.6699,-238 1973.3301,-238 1973.3301,-274"/>
<text text-anchor="middle" x="1922" y="-251.8" font-family="Times,serif" font-size="14.00" fill="#000000">SignUpModule</text>
</g>
<!-- SignUpModule&#45;&gt;AppModule -->
<g id="edge4" class="edge">
<title>SignUpModule&#45;&gt;AppModule</title>
<path fill="none" stroke="#000000" d="M1922,-274.0449C1922,-295.6623 1922,-329 1922,-329 1922,-329 1781.6611,-329 1781.6611,-329"/>
<polygon fill="#000000" stroke="#000000" points="1781.6612,-325.5001 1771.6611,-329 1781.6611,-332.5001 1781.6612,-325.5001"/>
</g>
<!-- SignUpRoutingModule.components  -->
<g id="node29" class="node">
<title>SignUpRoutingModule.components </title>
<polygon fill="#fb8072" stroke="#000000" points="2762.1024,-198 2539.8976,-198 2539.8976,-162 2762.1024,-162 2762.1024,-198"/>
<text text-anchor="middle" x="2651" y="-175.8" font-family="Times,serif" font-size="14.00" fill="#000000">SignUpRoutingModule.components </text>
</g>
<!-- SignUpModule&#45;&gt;SignUpRoutingModule.components  -->
<g id="edge35" class="edge">
<title>SignUpModule&#45;&gt;SignUpRoutingModule.components </title>
<path fill="none" stroke="#000000" stroke-dasharray="5,2" d="M1967.3142,-237.5782C1967.3142,-228.7209 1967.3142,-220 1967.3142,-220 1967.3142,-220 2651,-220 2651,-220 2651,-220 2651,-208.1274 2651,-208.1274"/>
<polygon fill="#000000" stroke="#000000" points="2654.5001,-208.1274 2651,-198.1274 2647.5001,-208.1275 2654.5001,-208.1274"/>
</g>
<!-- LoginModule -->
<g id="node5" class="node">
<title>LoginModule</title>
<polygon fill="#8dd3c7" stroke="#000000" points="2084.493,-274 2081.493,-278 2060.493,-278 2057.493,-274 1991.507,-274 1991.507,-238 2084.493,-238 2084.493,-274"/>
<text text-anchor="middle" x="2038" y="-251.8" font-family="Times,serif" font-size="14.00" fill="#000000">LoginModule</text>
</g>
<!-- LoginModule&#45;&gt;AppModule -->
<g id="edge5" class="edge">
<title>LoginModule&#45;&gt;AppModule</title>
<path fill="none" stroke="#000000" d="M2038,-274.0265C2038,-299.5093 2038,-343 2038,-343 2038,-343 1781.8588,-343 1781.8588,-343"/>
<polygon fill="#000000" stroke="#000000" points="1781.8588,-339.5001 1771.8588,-343 1781.8588,-346.5001 1781.8588,-339.5001"/>
</g>
<!-- LoginRoutingModule.components  -->
<g id="node21" class="node">
<title>LoginRoutingModule.components </title>
<polygon fill="#fb8072" stroke="#000000" points="3186.2659,-198 2973.7341,-198 2973.7341,-162 3186.2659,-162 3186.2659,-198"/>
<text text-anchor="middle" x="3080" y="-175.8" font-family="Times,serif" font-size="14.00" fill="#000000">LoginRoutingModule.components </text>
</g>
<!-- LoginModule&#45;&gt;LoginRoutingModule.components  -->
<g id="edge24" class="edge">
<title>LoginModule&#45;&gt;LoginRoutingModule.components </title>
<path fill="none" stroke="#000000" stroke-dasharray="5,2" d="M2065.8104,-237.7566C2065.8104,-230.5703 2065.8104,-224 2065.8104,-224 2065.8104,-224 3080,-224 3080,-224 3080,-224 3080,-208.1505 3080,-208.1505"/>
<polygon fill="#000000" stroke="#000000" points="3083.5001,-208.1505 3080,-198.1505 3076.5001,-208.1506 3083.5001,-208.1505"/>
</g>
<!-- AppRoutingModule -->
<g id="node6" class="node">
<title>AppRoutingModule</title>
<polygon fill="#8dd3c7" stroke="#000000" points="2084.2744,-198 2081.2744,-202 2060.2744,-202 2057.2744,-198 1955.7256,-198 1955.7256,-162 2084.2744,-162 2084.2744,-198"/>
<text text-anchor="middle" x="2020" y="-175.8" font-family="Times,serif" font-size="14.00" fill="#000000">AppRoutingModule</text>
</g>
<!-- AppRoutingModule&#45;&gt;AppModule -->
<g id="edge6" class="edge">
<title>AppRoutingModule&#45;&gt;AppModule</title>
<path fill="none" stroke="#000000" d="M1982.3342,-198.2005C1982.3342,-239.3516 1982.3342,-336 1982.3342,-336 1982.3342,-336 1781.6679,-336 1781.6679,-336"/>
<polygon fill="#000000" stroke="#000000" points="1781.6679,-332.5001 1771.6679,-336 1781.6678,-339.5001 1781.6679,-332.5001"/>
</g>
<!-- RouterModule  -->
<g id="node12" class="node">
<title>RouterModule </title>
<polygon fill="#fb8072" stroke="#000000" points="2454.6523,-274 2353.3477,-274 2353.3477,-238 2454.6523,-238 2454.6523,-274"/>
<text text-anchor="middle" x="2404" y="-251.8" font-family="Times,serif" font-size="14.00" fill="#000000">RouterModule </text>
</g>
<!-- AppRoutingModule&#45;&gt;RouterModule  -->
<g id="edge11" class="edge">
<title>AppRoutingModule&#45;&gt;RouterModule </title>
<path fill="none" stroke="#000000" stroke-dasharray="5,2" d="M2047.2337,-198.1243C2047.2337,-212.7832 2047.2337,-231 2047.2337,-231 2047.2337,-231 2357.4921,-231 2357.4921,-231 2357.4921,-231 2357.4921,-231.6831 2357.4921,-231.6831"/>
<polygon fill="#000000" stroke="#000000" points="2353.9923,-227.8313 2357.4921,-237.8314 2360.9923,-227.8314 2353.9923,-227.8313"/>
</g>
<!-- SharedModule -->
<g id="node7" class="node">
<title>SharedModule</title>
<polygon fill="#8dd3c7" stroke="#000000" points="1709.4231,-198 1706.4231,-202 1685.4231,-202 1682.4231,-198 1610.5769,-198 1610.5769,-162 1709.4231,-162 1709.4231,-198"/>
<text text-anchor="middle" x="1660" y="-175.8" font-family="Times,serif" font-size="14.00" fill="#000000">SharedModule</text>
</g>
<!-- SharedModule&#45;&gt;HomeModule -->
<g id="edge17" class="edge">
<title>SharedModule&#45;&gt;HomeModule</title>
<path fill="none" stroke="#000000" d="M1705.0032,-198.1985C1705.0032,-222.3563 1705.0032,-262 1705.0032,-262 1705.0032,-262 1749.0497,-262 1749.0497,-262"/>
<polygon fill="#000000" stroke="#000000" points="1749.0497,-265.5001 1759.0497,-262 1749.0497,-258.5001 1749.0497,-265.5001"/>
</g>
<!-- SharedModule&#45;&gt;SignUpModule -->
<g id="edge33" class="edge">
<title>SharedModule&#45;&gt;SignUpModule</title>
<path fill="none" stroke="#000000" d="M1692.3797,-198.027C1692.3797,-214.3976 1692.3797,-236 1692.3797,-236 1692.3797,-236 1904.027,-236 1904.027,-236 1904.027,-236 1904.027,-236.1846 1904.027,-236.1846"/>
<polygon fill="#000000" stroke="#000000" points="1900.5276,-227.8455 1904.027,-237.8457 1907.5276,-227.8459 1900.5276,-227.8455"/>
</g>
<!-- SharedModule&#45;&gt;LoginModule -->
<g id="edge22" class="edge">
<title>SharedModule&#45;&gt;LoginModule</title>
<path fill="none" stroke="#000000" d="M1696.5875,-198.2819C1696.5875,-213.9478 1696.5875,-234 1696.5875,-234 1696.5875,-234 2010.0802,-234 2010.0802,-234 2010.0802,-234 2010.0802,-234.3832 2010.0802,-234.3832"/>
<polygon fill="#000000" stroke="#000000" points="2006.5805,-227.832 2010.0802,-237.8321 2013.5805,-227.8322 2006.5805,-227.832"/>
</g>
<!-- SharedModule&#45;&gt;AppModule -->
<g id="edge7" class="edge">
<title>SharedModule&#45;&gt;AppModule</title>
<path fill="none" stroke="#000000" d="M1700.7954,-198.0333C1700.7954,-198.0333 1700.7954,-303.9902 1700.7954,-303.9902"/>
<polygon fill="#000000" stroke="#000000" points="1697.2955,-303.9901 1700.7954,-313.9902 1704.2955,-303.9902 1697.2955,-303.9901"/>
</g>
<!-- EmailValidatorDirective  -->
<g id="node24" class="node">
<title>EmailValidatorDirective </title>
<polygon fill="#fb8072" stroke="#000000" points="1167.89,-274 1010.11,-274 1010.11,-238 1167.89,-238 1167.89,-274"/>
<text text-anchor="middle" x="1089" y="-251.8" font-family="Times,serif" font-size="14.00" fill="#000000">EmailValidatorDirective </text>
</g>
<!-- SharedModule&#45;&gt;EmailValidatorDirective  -->
<g id="edge29" class="edge">
<title>SharedModule&#45;&gt;EmailValidatorDirective </title>
<path fill="none" stroke="#000000" stroke-dasharray="5,2" d="M1647.7841,-198.0449C1647.7841,-205.749 1647.7841,-213 1647.7841,-213 1647.7841,-213 1089,-213 1089,-213 1089,-213 1089,-227.5146 1089,-227.5146"/>
<polygon fill="#000000" stroke="#000000" points="1085.5001,-227.5145 1089,-237.5146 1092.5001,-227.5146 1085.5001,-227.5145"/>
</g>
<!-- CommonModule  -->
<g id="node25" class="node">
<title>CommonModule </title>
<polygon fill="#fb8072" stroke="#000000" points="991.6677,-274 876.3323,-274 876.3323,-238 991.6677,-238 991.6677,-274"/>
<text text-anchor="middle" x="934" y="-251.8" font-family="Times,serif" font-size="14.00" fill="#000000">CommonModule </text>
</g>
<!-- SharedModule&#45;&gt;CommonModule  -->
<g id="edge30" class="edge">
<title>SharedModule&#45;&gt;CommonModule </title>
<path fill="none" stroke="#000000" stroke-dasharray="5,2" d="M1638.5353,-198.1432C1638.5353,-204.4611 1638.5353,-210 1638.5353,-210 1638.5353,-210 934,-210 934,-210 934,-210 934,-227.8196 934,-227.8196"/>
<polygon fill="#000000" stroke="#000000" points="930.5001,-227.8195 934,-237.8196 937.5001,-227.8196 930.5001,-227.8195"/>
</g>
<!-- PasswordMatchDirective  -->
<g id="node26" class="node">
<title>PasswordMatchDirective </title>
<polygon fill="#fb8072" stroke="#000000" points="858.5008,-274 697.4992,-274 697.4992,-238 858.5008,-238 858.5008,-274"/>
<text text-anchor="middle" x="778" y="-251.8" font-family="Times,serif" font-size="14.00" fill="#000000">PasswordMatchDirective </text>
</g>
<!-- SharedModule&#45;&gt;PasswordMatchDirective  -->
<g id="edge31" class="edge">
<title>SharedModule&#45;&gt;PasswordMatchDirective </title>
<path fill="none" stroke="#000000" stroke-dasharray="5,2" d="M1629.2865,-198.0579C1629.2865,-202.4945 1629.2865,-206 1629.2865,-206 1629.2865,-206 778,-206 778,-206 778,-206 778,-227.9489 778,-227.9489"/>
<polygon fill="#000000" stroke="#000000" points="774.5001,-227.9488 778,-237.9489 781.5001,-227.9489 774.5001,-227.9488"/>
</g>
<!-- ReactiveFormsModule  -->
<g id="node27" class="node">
<title>ReactiveFormsModule </title>
<polygon fill="#fb8072" stroke="#000000" points="679.8045,-274 532.1955,-274 532.1955,-238 679.8045,-238 679.8045,-274"/>
<text text-anchor="middle" x="606" y="-251.8" font-family="Times,serif" font-size="14.00" fill="#000000">ReactiveFormsModule </text>
</g>
<!-- SharedModule&#45;&gt;ReactiveFormsModule  -->
<g id="edge32" class="edge">
<title>SharedModule&#45;&gt;ReactiveFormsModule </title>
<path fill="none" stroke="#000000" stroke-dasharray="5,2" d="M1620.0377,-198.1223C1620.0377,-200.9729 1620.0377,-203 1620.0377,-203 1620.0377,-203 606,-203 606,-203 606,-203 606,-227.7604 606,-227.7604"/>
<polygon fill="#000000" stroke="#000000" points="602.5001,-227.7604 606,-237.7604 609.5001,-227.7604 602.5001,-227.7604"/>
</g>
<!-- CoreModule -->
<g id="node8" class="node">
<title>CoreModule</title>
<polygon fill="#8dd3c7" stroke="#000000" points="1592.2619,-198 1589.2619,-202 1568.2619,-202 1565.2619,-198 1505.7381,-198 1505.7381,-162 1592.2619,-162 1592.2619,-198"/>
<text text-anchor="middle" x="1549" y="-175.8" font-family="Times,serif" font-size="14.00" fill="#000000">CoreModule</text>
</g>
<!-- CoreModule&#45;&gt;AppModule -->
<g id="edge8" class="edge">
<title>CoreModule&#45;&gt;AppModule</title>
<path fill="none" stroke="#000000" d="M1563.4603,-198.0333C1563.4603,-238.2965 1563.4603,-332 1563.4603,-332 1563.4603,-332 1677.975,-332 1677.975,-332"/>
<polygon fill="#000000" stroke="#000000" points="1677.975,-335.5001 1687.975,-332 1677.975,-328.5001 1677.975,-335.5001"/>
</g>
<!-- CoreModule&#45;&gt;RouterModule  -->
<g id="edge15" class="edge">
<title>CoreModule&#45;&gt;RouterModule </title>
<path fill="none" stroke="#000000" stroke-dasharray="5,2" d="M1534.5397,-198.207C1534.5397,-203.5549 1534.5397,-208 1534.5397,-208 1534.5397,-208 2384.8143,-208 2384.8143,-208 2384.8143,-208 2384.8143,-227.8533 2384.8143,-227.8533"/>
<polygon fill="#000000" stroke="#000000" points="2381.3143,-227.8532 2384.8143,-237.8533 2388.3143,-227.8533 2381.3143,-227.8532"/>
</g>
<!-- NavbarComponent  -->
<g id="node15" class="node">
<title>NavbarComponent </title>
<polygon fill="#fb8072" stroke="#000000" points="262.0288,-274 135.9712,-274 135.9712,-238 262.0288,-238 262.0288,-274"/>
<text text-anchor="middle" x="199" y="-251.8" font-family="Times,serif" font-size="14.00" fill="#000000">NavbarComponent </text>
</g>
<!-- CoreModule&#45;&gt;NavbarComponent  -->
<g id="edge14" class="edge">
<title>CoreModule&#45;&gt;NavbarComponent </title>
<path fill="none" stroke="#000000" stroke-dasharray="5,2" d="M1505.6121,-177C1274.5392,-177 199,-177 199,-177 199,-177 199,-227.6772 199,-227.6772"/>
<polygon fill="#000000" stroke="#000000" points="195.5001,-227.6772 199,-237.6772 202.5001,-227.6773 195.5001,-227.6772"/>
</g>
<!-- ToastModule  -->
<g id="node16" class="node">
<title>ToastModule </title>
<polygon fill="#fb8072" stroke="#000000" points="118.1523,-274 23.8477,-274 23.8477,-238 118.1523,-238 118.1523,-274"/>
<text text-anchor="middle" x="71" y="-251.8" font-family="Times,serif" font-size="14.00" fill="#000000">ToastModule </text>
</g>
<!-- CoreModule&#45;&gt;ToastModule  -->
<g id="edge16" class="edge">
<title>CoreModule&#45;&gt;ToastModule </title>
<path fill="none" stroke="#000000" stroke-dasharray="5,2" d="M1505.5667,-170C1261.4346,-170 71,-170 71,-170 71,-170 71,-227.7616 71,-227.7616"/>
<polygon fill="#000000" stroke="#000000" points="67.5001,-227.7616 71,-237.7616 74.5001,-227.7616 67.5001,-227.7616"/>
</g>
<!-- AppComponent  -->
<g id="node10" class="node">
<title>AppComponent </title>
<polygon fill="#80b1d3" stroke="#000000" points="1784.439,-418 1675.561,-418 1675.561,-382 1784.439,-382 1784.439,-418"/>
<text text-anchor="middle" x="1730" y="-395.8" font-family="Times,serif" font-size="14.00" fill="#000000">AppComponent </text>
</g>
<!-- AppModule&#45;&gt;AppComponent  -->
<g id="edge9" class="edge">
<title>AppModule&#45;&gt;AppComponent </title>
<path fill="none" stroke="#000000" stroke-dasharray="1,5" d="M1730,-350.2228C1730,-350.2228 1730,-371.7269 1730,-371.7269"/>
<polygon fill="#000000" stroke="#000000" points="1726.5001,-371.7269 1730,-381.7269 1733.5001,-371.727 1726.5001,-371.7269"/>
</g>
<!-- RouterModule.forRoot(args) -->
<g id="node11" class="node">
<title>RouterModule.forRoot(args)</title>
<polygon fill="#8dd3c7" stroke="#000000" points="2328.8419,-274 2325.8419,-278 2304.8419,-278 2301.8419,-274 2151.1581,-274 2151.1581,-238 2328.8419,-238 2328.8419,-274"/>
<text text-anchor="middle" x="2240" y="-251.8" font-family="Times,serif" font-size="14.00" fill="#000000">RouterModule.forRoot(args)</text>
</g>
<!-- RouterModule.forRoot(args)&#45;&gt;AppRoutingModule -->
<g id="edge10" class="edge">
<title>RouterModule.forRoot(args)&#45;&gt;AppRoutingModule</title>
<path fill="none" stroke="#000000" d="M2151.0426,-256C2125.477,-256 2104.3647,-256 2104.3647,-256 2104.3647,-256 2104.3647,-180 2104.3647,-180 2104.3647,-180 2094.3714,-180 2094.3714,-180"/>
<polygon fill="#000000" stroke="#000000" points="2094.3714,-176.5001 2084.3714,-180 2094.3714,-183.5001 2094.3714,-176.5001"/>
</g>
<!-- RouterModule -->
<g id="node13" class="node">
<title>RouterModule</title>
<polygon fill="#8dd3c7" stroke="#000000" points="491.6528,-274 488.6528,-278 467.6528,-278 464.6528,-274 394.3472,-274 394.3472,-238 491.6528,-238 491.6528,-274"/>
<text text-anchor="middle" x="443" y="-251.8" font-family="Times,serif" font-size="14.00" fill="#000000">RouterModule</text>
</g>
<!-- RouterModule&#45;&gt;CoreModule -->
<g id="edge12" class="edge">
<title>RouterModule&#45;&gt;CoreModule</title>
<path fill="none" stroke="#000000" d="M443,-237.8939C443,-218.6609 443,-191 443,-191 443,-191 1495.6435,-191 1495.6435,-191"/>
<polygon fill="#000000" stroke="#000000" points="1495.6435,-194.5001 1505.6435,-191 1495.6435,-187.5001 1495.6435,-194.5001"/>
</g>
<!-- ToastModule -->
<g id="node14" class="node">
<title>ToastModule</title>
<polygon fill="#8dd3c7" stroke="#000000" points="376.1529,-274 373.1529,-278 352.1529,-278 349.1529,-274 285.8471,-274 285.8471,-238 376.1529,-238 376.1529,-274"/>
<text text-anchor="middle" x="331" y="-251.8" font-family="Times,serif" font-size="14.00" fill="#000000">ToastModule</text>
</g>
<!-- ToastModule&#45;&gt;CoreModule -->
<g id="edge13" class="edge">
<title>ToastModule&#45;&gt;CoreModule</title>
<path fill="none" stroke="#000000" d="M315.8913,-237.8314C315.8913,-216.502 315.8913,-184 315.8913,-184 315.8913,-184 1495.4752,-184 1495.4752,-184"/>
<polygon fill="#000000" stroke="#000000" points="1495.4752,-187.5001 1505.4752,-184 1495.4752,-180.5001 1495.4752,-187.5001"/>
</g>
<!-- ToastComponent  -->
<g id="node30" class="node">
<title>ToastComponent </title>
<polygon fill="#fb8072" stroke="#000000" points="388.9348,-350 273.0652,-350 273.0652,-314 388.9348,-314 388.9348,-350"/>
<text text-anchor="middle" x="331" y="-327.8" font-family="Times,serif" font-size="14.00" fill="#000000">ToastComponent </text>
</g>
<!-- ToastModule&#45;&gt;ToastComponent  -->
<g id="edge39" class="edge">
<title>ToastModule&#45;&gt;ToastComponent </title>
<path fill="none" stroke="#000000" stroke-dasharray="5,2" d="M331,-274.0109C331,-274.0109 331,-303.855 331,-303.855"/>
<polygon fill="#000000" stroke="#000000" points="327.5001,-303.8549 331,-313.855 334.5001,-303.855 327.5001,-303.8549"/>
</g>
<!-- HomeRoutingModule -->
<g id="node17" class="node">
<title>HomeRoutingModule</title>
<polygon fill="#8dd3c7" stroke="#000000" points="2500.3795,-198 2497.3795,-202 2476.3795,-202 2473.3795,-198 2361.6205,-198 2361.6205,-162 2500.3795,-162 2500.3795,-198"/>
<text text-anchor="middle" x="2431" y="-175.8" font-family="Times,serif" font-size="14.00" fill="#000000">HomeRoutingModule</text>
</g>
<!-- HomeRoutingModule&#45;&gt;HomeModule -->
<g id="edge18" class="edge">
<title>HomeRoutingModule&#45;&gt;HomeModule</title>
<path fill="none" stroke="#000000" d="M2408.0682,-198.0664C2408.0682,-207.4587 2408.0682,-217 2408.0682,-217 2408.0682,-217 1840.5849,-217 1840.5849,-217 1840.5849,-217 1840.5849,-227.8701 1840.5849,-227.8701"/>
<polygon fill="#000000" stroke="#000000" points="1837.085,-227.8701 1840.5849,-237.8701 1844.085,-227.8701 1837.085,-227.8701"/>
</g>
<!-- HomeRoutingModule&#45;&gt;RouterModule  -->
<g id="edge21" class="edge">
<title>HomeRoutingModule&#45;&gt;RouterModule </title>
<path fill="none" stroke="#000000" stroke-dasharray="5,2" d="M2431.3222,-198.0109C2431.3222,-198.0109 2431.3222,-227.855 2431.3222,-227.855"/>
<polygon fill="#000000" stroke="#000000" points="2427.8222,-227.8549 2431.3222,-237.855 2434.8222,-227.855 2427.8222,-227.8549"/>
</g>
<!-- RouterModule.forChild(args) -->
<g id="node19" class="node">
<title>RouterModule.forChild(args)</title>
<polygon fill="#8dd3c7" stroke="#000000" points="2950.7323,-122 2947.7323,-126 2926.7323,-126 2923.7323,-122 2769.2677,-122 2769.2677,-86 2950.7323,-86 2950.7323,-122"/>
<text text-anchor="middle" x="2860" y="-99.8" font-family="Times,serif" font-size="14.00" fill="#000000">RouterModule.forChild(args)</text>
</g>
<!-- RouterModule.forChild(args)&#45;&gt;HomeRoutingModule -->
<g id="edge20" class="edge">
<title>RouterModule.forChild(args)&#45;&gt;HomeRoutingModule</title>
<path fill="none" stroke="#000000" d="M2769.2824,-104C2643.3857,-104 2431,-104 2431,-104 2431,-104 2431,-151.9891 2431,-151.9891"/>
<polygon fill="#000000" stroke="#000000" points="2427.5001,-151.989 2431,-161.9891 2434.5001,-151.9891 2427.5001,-151.989"/>
</g>
<!-- LoginRoutingModule -->
<g id="node20" class="node">
<title>LoginRoutingModule</title>
<polygon fill="#8dd3c7" stroke="#000000" points="3348.1108,-198 3345.1108,-202 3324.1108,-202 3321.1108,-198 3209.8892,-198 3209.8892,-162 3348.1108,-162 3348.1108,-198"/>
<text text-anchor="middle" x="3279" y="-175.8" font-family="Times,serif" font-size="14.00" fill="#000000">LoginRoutingModule</text>
</g>
<!-- RouterModule.forChild(args)&#45;&gt;LoginRoutingModule -->
<g id="edge25" class="edge">
<title>RouterModule.forChild(args)&#45;&gt;LoginRoutingModule</title>
<path fill="none" stroke="#000000" d="M2950.6587,-104C3073.8618,-104 3279,-104 3279,-104 3279,-104 3279,-151.9891 3279,-151.9891"/>
<polygon fill="#000000" stroke="#000000" points="3275.5001,-151.989 3279,-161.9891 3282.5001,-151.9891 3275.5001,-151.989"/>
</g>
<!-- SignUpRoutingModule -->
<g id="node28" class="node">
<title>SignUpRoutingModule</title>
<polygon fill="#8dd3c7" stroke="#000000" points="2933.9481,-198 2930.9481,-202 2909.9481,-202 2906.9481,-198 2786.0519,-198 2786.0519,-162 2933.9481,-162 2933.9481,-198"/>
<text text-anchor="middle" x="2860" y="-175.8" font-family="Times,serif" font-size="14.00" fill="#000000">SignUpRoutingModule</text>
</g>
<!-- RouterModule.forChild(args)&#45;&gt;SignUpRoutingModule -->
<g id="edge36" class="edge">
<title>RouterModule.forChild(args)&#45;&gt;SignUpRoutingModule</title>
<path fill="none" stroke="#000000" d="M2860,-122.0109C2860,-122.0109 2860,-151.855 2860,-151.855"/>
<polygon fill="#000000" stroke="#000000" points="2856.5001,-151.8549 2860,-161.855 2863.5001,-151.855 2856.5001,-151.8549"/>
</g>
<!-- LoginRoutingModule&#45;&gt;LoginModule -->
<g id="edge23" class="edge">
<title>LoginRoutingModule&#45;&gt;LoginModule</title>
<path fill="none" stroke="#000000" d="M3255.9815,-198.037C3255.9815,-211.2913 3255.9815,-227 3255.9815,-227 3255.9815,-227 2028.6569,-227 2028.6569,-227 2028.6569,-227 2028.6569,-228.0799 2028.6569,-228.0799"/>
<polygon fill="#000000" stroke="#000000" points="2025.157,-227.7985 2028.6569,-237.7985 2032.157,-227.7986 2025.157,-227.7985"/>
</g>
<!-- LoginRoutingModule&#45;&gt;RouterModule  -->
<g id="edge26" class="edge">
<title>LoginRoutingModule&#45;&gt;RouterModule </title>
<path fill="none" stroke="#000000" stroke-dasharray="5,2" d="M3302.0185,-198.1985C3302.0185,-222.3563 3302.0185,-262 3302.0185,-262 3302.0185,-262 2464.8544,-262 2464.8544,-262"/>
<polygon fill="#000000" stroke="#000000" points="2464.8544,-258.5001 2454.8544,-262 2464.8543,-265.5001 2464.8544,-258.5001"/>
</g>
<!-- CommonModule -->
<g id="node22" class="node">
<title>CommonModule</title>
<polygon fill="#8dd3c7" stroke="#000000" points="1465.6681,-274 1462.6681,-278 1441.6681,-278 1438.6681,-274 1354.3319,-274 1354.3319,-238 1465.6681,-238 1465.6681,-274"/>
<text text-anchor="middle" x="1410" y="-251.8" font-family="Times,serif" font-size="14.00" fill="#000000">CommonModule</text>
</g>
<!-- CommonModule&#45;&gt;SharedModule -->
<g id="edge27" class="edge">
<title>CommonModule&#45;&gt;SharedModule</title>
<path fill="none" stroke="#000000" d="M1465.9254,-250C1541.3336,-250 1666.2817,-250 1666.2817,-250 1666.2817,-250 1666.2817,-208.0267 1666.2817,-208.0267"/>
<polygon fill="#000000" stroke="#000000" points="1669.7818,-208.0267 1666.2817,-198.0267 1662.7818,-208.0268 1669.7818,-208.0267"/>
</g>
<!-- CommonModule&#45;&gt;ToastModule -->
<g id="edge38" class="edge">
<title>CommonModule&#45;&gt;ToastModule</title>
<path fill="none" stroke="#000000" d="M1410,-237.9909C1410,-221.9506 1410,-201 1410,-201 1410,-201 346.1087,-201 346.1087,-201 346.1087,-201 346.1087,-227.9909 346.1087,-227.9909"/>
<polygon fill="#000000" stroke="#000000" points="342.6088,-227.9909 346.1087,-237.9909 349.6088,-227.991 342.6088,-227.9909"/>
</g>
<!-- ReactiveFormsModule -->
<g id="node23" class="node">
<title>ReactiveFormsModule</title>
<polygon fill="#8dd3c7" stroke="#000000" points="1336.3047,-274 1333.3047,-278 1312.3047,-278 1309.3047,-274 1191.6953,-274 1191.6953,-238 1336.3047,-238 1336.3047,-274"/>
<text text-anchor="middle" x="1264" y="-251.8" font-family="Times,serif" font-size="14.00" fill="#000000">ReactiveFormsModule</text>
</g>
<!-- ReactiveFormsModule&#45;&gt;SharedModule -->
<g id="edge28" class="edge">
<title>ReactiveFormsModule&#45;&gt;SharedModule</title>
<path fill="none" stroke="#000000" d="M1264,-237.8408C1264,-232.9567 1264,-229 1264,-229 1264,-229 1657.0329,-229 1657.0329,-229 1657.0329,-229 1657.0329,-208.2458 1657.0329,-208.2458"/>
<polygon fill="#000000" stroke="#000000" points="1660.533,-208.2458 1657.0329,-198.2458 1653.533,-208.2458 1660.533,-208.2458"/>
</g>
<!-- SignUpRoutingModule&#45;&gt;SignUpModule -->
<g id="edge34" class="edge">
<title>SignUpRoutingModule&#45;&gt;SignUpModule</title>
<path fill="none" stroke="#000000" d="M2835.4254,-198.0555C2835.4254,-209.439 2835.4254,-222 2835.4254,-222 2835.4254,-222 1961.4635,-222 1961.4635,-222 1961.4635,-222 1961.4635,-227.8056 1961.4635,-227.8056"/>
<polygon fill="#000000" stroke="#000000" points="1957.9636,-227.8055 1961.4635,-237.8056 1964.9636,-227.8056 1957.9636,-227.8055"/>
</g>
<!-- SignUpRoutingModule&#45;&gt;RouterModule  -->
<g id="edge37" class="edge">
<title>SignUpRoutingModule&#45;&gt;RouterModule </title>
<path fill="none" stroke="#000000" stroke-dasharray="5,2" d="M2884.5746,-198.0267C2884.5746,-218.7672 2884.5746,-250 2884.5746,-250 2884.5746,-250 2464.9749,-250 2464.9749,-250"/>
<polygon fill="#000000" stroke="#000000" points="2464.975,-246.5001 2454.9749,-250 2464.9749,-253.5001 2464.975,-246.5001"/>
</g>
</g>
</svg>
